<ttFont>
<head>
    <!-- Most of this table will be recalculated by the compiler -->
    <tableVersion value="1.0"/>
    <fontRevision value="0.84999"/>
    <checkSumAdjustment value="0x10827a8e"/>
    <magicNumber value="0x5f0f3cf5"/>
    <flags value="00000000 00000111"/>
    <unitsPerEm value="1000"/>
    <created value="Sat Nov 28 12:14:13 2020"/>
    <modified value="Wed Sep  1 18:33:28 2021"/>
    <xMin value="-122"/>
    <yMin value="-216"/>
    <xMax value="581"/>
    <yMax value="1024"/>
    <macStyle value="00000000 00000000"/>
    <lowestRecPPEM value="7"/>
    <fontDirectionHint value="2"/>
    <indexToLocFormat value="0"/>
    <glyphDataFormat value="0"/>
  </head>
    <TTGlyph name=".notdef" xMin="98" yMin="-200" xMax="431" yMax="850">
      <contour>
        <pt x="431" y="-200" on="1"/>
        <pt x="98" y="-200" on="1"/>
        <pt x="98" y="850" on="1"/>
        <pt x="431" y="850" on="1"/>
      </contour>
      <contour>
        <pt x="350" y="-128" on="1"/>
        <pt x="350" y="-93" on="1"/>
        <pt x="243" y="-93" on="1"/>
        <pt x="316" y="-44" on="1"/>
        <pt x="350" y="-44" on="1"/>
        <pt x="350" y="-9" on="1"/>
        <pt x="175" y="-9" on="1"/>
        <pt x="175" y="-44" on="1"/>
        <pt x="249" y="-44" on="1"/>
        <pt x="175" y="-93" on="1"/>
        <pt x="175" y="-128" on="1"/>
      </contour>
      <contour>
        <pt x="350" y="15" on="1"/>
        <pt x="350" y="134" on="1"/>
        <pt x="175" y="134" on="1"/>
        <pt x="175" y="15" on="1"/>
      </contour>
      <contour>
        <pt x="350" y="197" on="1"/>
        <pt x="350" y="316" on="1"/>
        <pt x="245" y="316" on="1"/>
        <pt x="245" y="257" on="1"/>
        <pt x="280" y="257" on="1"/>
        <pt x="280" y="281" on="1"/>
        <pt x="315" y="281" on="1"/>
        <pt x="315" y="232" on="1"/>
        <pt x="210" y="232" on="1"/>
        <pt x="210" y="316" on="1"/>
        <pt x="175" y="316" on="1"/>
        <pt x="175" y="197" on="1"/>
      </contour>
      <contour>
        <pt x="350" y="339" on="1"/>
        <pt x="350" y="444" on="1"/>
        <pt x="315" y="444" on="1"/>
        <pt x="315" y="374" on="1"/>
        <pt x="175" y="374" on="1"/>
        <pt x="175" y="339" on="1"/>
      </contour>
      <contour>
        <pt x="280" y="399" on="1"/>
        <pt x="280" y="472" on="1"/>
        <pt x="350" y="472" on="1"/>
        <pt x="350" y="507" on="1"/>
        <pt x="175" y="507" on="1"/>
        <pt x="175" y="472" on="1"/>
        <pt x="245" y="472" on="1"/>
        <pt x="245" y="433" on="1"/>
        <pt x="175" y="433" on="1"/>
        <pt x="175" y="399" on="1"/>
      </contour>
      <contour>
        <pt x="350" y="535" on="1"/>
        <pt x="350" y="571" on="1"/>
        <pt x="280" y="571" on="1"/>
        <pt x="280" y="644" on="1"/>
        <pt x="175" y="644" on="1"/>
        <pt x="175" y="535" on="1"/>
      </contour>
      <contour>
        <pt x="350" y="672" on="1"/>
        <pt x="350" y="706" on="1"/>
        <pt x="280" y="706" on="1"/>
        <pt x="280" y="745" on="1"/>
        <pt x="350" y="745" on="1"/>
        <pt x="350" y="780" on="1"/>
        <pt x="176" y="780" on="1"/>
        <pt x="176" y="745" on="1"/>
        <pt x="245" y="745" on="1"/>
        <pt x="245" y="706" on="1"/>
        <pt x="175" y="706" on="1"/>
        <pt x="175" y="672" on="1"/>
      </contour>
      <contour>
        <pt x="210" y="99" on="1"/>
        <pt x="315" y="99" on="1"/>
        <pt x="315" y="50" on="1"/>
        <pt x="210" y="50" on="1"/>
      </contour>
      <contour>
        <pt x="210" y="609" on="1"/>
        <pt x="245" y="609" on="1"/>
        <pt x="245" y="571" on="1"/>
        <pt x="210" y="571" on="1"/>
      </contour>
    </TTGlyph>
    <TTGlyph name="A" xMin="48" yMin="0" xMax="552" yMax="800">
      <contour>
        <pt x="384" y="277" on="1"/>
        <pt x="211" y="277" on="1"/>
        <pt x="155" y="0" on="1"/>
        <pt x="48" y="0" on="1"/>
        <pt x="216" y="800" on="1"/>
        <pt x="384" y="800" on="1"/>
        <pt x="552" y="0" on="1"/>
        <pt x="440" y="0" on="1"/>
      </contour>
      <contour>
        <pt x="364" y="377" on="1"/>
        <pt x="297" y="707" on="1"/>
        <pt x="231" y="377" on="1"/>
      </contour>
    </TTGlyph>
    <TTGlyph name="B" xMin="103" yMin="0" xMax="544" yMax="800">
      <contour>
        <pt x="419" y="800" on="0"/>
        <pt x="544" y="688" on="0"/>
        <pt x="544" y="583" on="1"/>
        <pt x="544" y="437" on="0"/>
        <pt x="410" y="416" on="1"/>
        <pt x="410" y="387" on="1"/>
        <pt x="539" y="364" on="0"/>
        <pt x="539" y="217" on="1"/>
        <pt x="539" y="112" on="0"/>
        <pt x="413" y="0" on="0"/>
        <pt x="297" y="0" on="1"/>
        <pt x="103" y="0" on="1"/>
        <pt x="103" y="800" on="1"/>
        <pt x="303" y="800" on="1"/>
      </contour>
      <contour>
        <pt x="297" y="104" on="1"/>
        <pt x="364" y="104" on="0"/>
        <pt x="433" y="166" on="0"/>
        <pt x="433" y="227" on="1"/>
        <pt x="433" y="288" on="0"/>
        <pt x="364" y="351" on="0"/>
        <pt x="297" y="351" on="1"/>
        <pt x="211" y="351" on="1"/>
        <pt x="211" y="104" on="1"/>
      </contour>
      <contour>
        <pt x="303" y="451" on="1"/>
        <pt x="370" y="451" on="0"/>
        <pt x="438" y="513" on="0"/>
        <pt x="438" y="574" on="1"/>
        <pt x="438" y="696" on="0"/>
        <pt x="303" y="696" on="1"/>
        <pt x="211" y="696" on="1"/>
        <pt x="211" y="451" on="1"/>
      </contour>
    </TTGlyph>
    <TTGlyph name="C" xMin="79" yMin="-16" xMax="543" yMax="816">
      <contour>
        <pt x="193" y="-16" on="0"/>
        <pt x="79" y="188" on="0"/>
        <pt x="79" y="400" on="1"/>
        <pt x="79" y="612" on="0"/>
        <pt x="197" y="816" on="0"/>
        <pt x="319" y="816" on="1"/>
        <pt x="421" y="816" on="0"/>
        <pt x="531" y="676" on="0"/>
        <pt x="543" y="530" on="1"/>
        <pt x="437" y="530" on="1"/>
        <pt x="428" y="625" on="0"/>
        <pt x="372" y="712" on="0"/>
        <pt x="319" y="712" on="1"/>
        <pt x="250" y="712" on="0"/>
        <pt x="187" y="563" on="0"/>
        <pt x="187" y="400" on="1"/>
        <pt x="187" y="237" on="0"/>
        <pt x="246" y="88" on="0"/>
        <pt x="311" y="88" on="1"/>
        <pt x="364" y="88" on="0"/>
        <pt x="419" y="168" on="0"/>
        <pt x="427" y="255" on="1"/>
        <pt x="533" y="255" on="1"/>
        <pt x="521" y="117" on="0"/>
        <pt x="412" y="-16" on="0"/>
        <pt x="311" y="-16" on="1"/>
      </contour>
    </TTGlyph>
    <TTGlyph name="D" xMin="83" yMin="0" xMax="538" yMax="800">
      <contour>
        <pt x="83" y="800" on="1"/>
        <pt x="266" y="800" on="1"/>
        <pt x="405" y="800" on="0"/>
        <pt x="538" y="604" on="0"/>
        <pt x="538" y="400" on="1"/>
        <pt x="538" y="196" on="0"/>
        <pt x="405" y="0" on="0"/>
        <pt x="266" y="0" on="1"/>
        <pt x="83" y="0" on="1"/>
      </contour>
      <contour>
        <pt x="266" y="104" on="1"/>
        <pt x="350" y="104" on="0"/>
        <pt x="430" y="249" on="0"/>
        <pt x="430" y="400" on="1"/>
        <pt x="430" y="551" on="0"/>
        <pt x="350" y="696" on="0"/>
        <pt x="266" y="696" on="1"/>
        <pt x="191" y="696" on="1"/>
        <pt x="191" y="104" on="1"/>
      </contour>
    </TTGlyph>
    <TTGlyph name="E" xMin="124" yMin="0" xMax="537" yMax="800">
      <contour>
        <pt x="124" y="800" on="1"/>
        <pt x="537" y="800" on="1"/>
        <pt x="537" y="696" on="1"/>
        <pt x="232" y="696" on="1"/>
        <pt x="232" y="453" on="1"/>
        <pt x="487" y="453" on="1"/>
        <pt x="487" y="353" on="1"/>
        <pt x="232" y="353" on="1"/>
        <pt x="232" y="104" on="1"/>
        <pt x="517" y="104" on="1"/>
        <pt x="517" y="0" on="1"/>
        <pt x="124" y="0" on="1"/>
      </contour>
    </TTGlyph>
    <TTGlyph name="Euro" xMin="40" yMin="-16" xMax="552" yMax="816">
      <contour>
        <pt x="247" y="-16" on="0"/>
        <pt x="142" y="126" on="0"/>
        <pt x="128" y="273" on="1"/>
        <pt x="40" y="273" on="1"/>
        <pt x="40" y="360" on="1"/>
        <pt x="122" y="360" on="1"/>
        <pt x="122" y="400" on="1"/>
        <pt x="122" y="430" on="0"/>
        <pt x="123" y="445" on="1"/>
        <pt x="40" y="445" on="1"/>
        <pt x="40" y="532" on="1"/>
        <pt x="128" y="532" on="1"/>
        <pt x="144" y="677" on="0"/>
        <pt x="250" y="816" on="0"/>
        <pt x="344" y="816" on="1"/>
        <pt x="441" y="816" on="0"/>
        <pt x="546" y="680" on="0"/>
        <pt x="552" y="546" on="1"/>
        <pt x="448" y="546" on="1"/>
        <pt x="442" y="633" on="0"/>
        <pt x="393" y="712" on="0"/>
        <pt x="344" y="712" on="1"/>
        <pt x="297" y="712" on="0"/>
        <pt x="242" y="625" on="0"/>
        <pt x="232" y="532" on="1"/>
        <pt x="383" y="532" on="1"/>
        <pt x="383" y="445" on="1"/>
        <pt x="227" y="445" on="1"/>
        <pt x="226" y="431" on="0"/>
        <pt x="226" y="400" on="1"/>
        <pt x="226" y="360" on="1"/>
        <pt x="383" y="360" on="1"/>
        <pt x="383" y="273" on="1"/>
        <pt x="231" y="273" on="1"/>
        <pt x="240" y="178" on="0"/>
        <pt x="293" y="88" on="0"/>
        <pt x="340" y="88" on="1"/>
        <pt x="385" y="88" on="0"/>
        <pt x="430" y="158" on="0"/>
        <pt x="435" y="234" on="1"/>
        <pt x="539" y="234" on="1"/>
        <pt x="534" y="110" on="0"/>
        <pt x="434" y="-16" on="0"/>
        <pt x="340" y="-16" on="1"/>
      </contour>
    </TTGlyph>
    <TTGlyph name="F" xMin="134" yMin="0" xMax="547" yMax="800">
      <contour>
        <pt x="134" y="800" on="1"/>
        <pt x="547" y="800" on="1"/>
        <pt x="547" y="696" on="1"/>
        <pt x="242" y="696" on="1"/>
        <pt x="242" y="443" on="1"/>
        <pt x="507" y="443" on="1"/>
        <pt x="507" y="339" on="1"/>
        <pt x="242" y="339" on="1"/>
        <pt x="242" y="0" on="1"/>
        <pt x="134" y="0" on="1"/>
      </contour>
    </TTGlyph>
    <TTGlyph name="G" xMin="68" yMin="-16" xMax="532" yMax="816">
      <contour>
        <pt x="171" y="-16" on="0"/>
        <pt x="68" y="194" on="0"/>
        <pt x="68" y="400" on="1"/>
        <pt x="68" y="612" on="0"/>
        <pt x="187" y="816" on="0"/>
        <pt x="311" y="816" on="1"/>
        <pt x="414" y="816" on="0"/>
        <pt x="521" y="686" on="0"/>
        <pt x="532" y="550" on="1"/>
        <pt x="426" y="550" on="1"/>
        <pt x="419" y="635" on="0"/>
        <pt x="364" y="712" on="0"/>
        <pt x="311" y="712" on="1"/>
        <pt x="241" y="712" on="0"/>
        <pt x="176" y="563" on="0"/>
        <pt x="176" y="400" on="1"/>
        <pt x="176" y="235" on="0"/>
        <pt x="239" y="85" on="0"/>
        <pt x="308" y="85" on="1"/>
        <pt x="356" y="85" on="0"/>
        <pt x="411" y="184" on="0"/>
        <pt x="422" y="293" on="1"/>
        <pt x="297" y="293" on="1"/>
        <pt x="297" y="397" on="1"/>
        <pt x="507" y="397" on="1"/>
        <pt x="507" y="0" on="1"/>
        <pt x="416" y="0" on="1"/>
        <pt x="416" y="71" on="1"/>
        <pt x="387" y="71" on="1"/>
        <pt x="376" y="27" on="0"/>
        <pt x="319" y="-16" on="0"/>
        <pt x="272" y="-16" on="1"/>
      </contour>
    </TTGlyph>
    <TTGlyph name="H" xMin="83" yMin="0" xMax="517" yMax="800">
      <contour>
        <pt x="191" y="800" on="1"/>
        <pt x="191" y="453" on="1"/>
        <pt x="409" y="453" on="1"/>
        <pt x="409" y="800" on="1"/>
        <pt x="517" y="800" on="1"/>
        <pt x="517" y="0" on="1"/>
        <pt x="409" y="0" on="1"/>
        <pt x="409" y="353" on="1"/>
        <pt x="191" y="353" on="1"/>
        <pt x="191" y="0" on="1"/>
        <pt x="83" y="0" on="1"/>
        <pt x="83" y="800" on="1"/>
      </contour>
    </TTGlyph>
    <TTGlyph name="I" xMin="103" yMin="0" xMax="497" yMax="800">
      <contour>
        <pt x="103" y="104" on="1"/>
        <pt x="246" y="104" on="1"/>
        <pt x="246" y="696" on="1"/>
        <pt x="103" y="696" on="1"/>
        <pt x="103" y="800" on="1"/>
        <pt x="497" y="800" on="1"/>
        <pt x="497" y="696" on="1"/>
        <pt x="354" y="696" on="1"/>
        <pt x="354" y="104" on="1"/>
        <pt x="497" y="104" on="1"/>
        <pt x="497" y="0" on="1"/>
        <pt x="103" y="0" on="1"/>
      </contour>
    </TTGlyph>
    <TTGlyph name="J" xMin="84" yMin="-16" xMax="499" yMax="800">
      <contour>
        <pt x="191" y="-16" on="0"/>
        <pt x="84" y="101" on="0"/>
        <pt x="84" y="208" on="1"/>
        <pt x="84" y="350" on="1"/>
        <pt x="189" y="350" on="1"/>
        <pt x="189" y="208" on="1"/>
        <pt x="189" y="149" on="0"/>
        <pt x="240" y="88" on="0"/>
        <pt x="290" y="88" on="1"/>
        <pt x="391" y="88" on="0"/>
        <pt x="391" y="208" on="1"/>
        <pt x="391" y="696" on="1"/>
        <pt x="140" y="696" on="1"/>
        <pt x="140" y="800" on="1"/>
        <pt x="499" y="800" on="1"/>
        <pt x="499" y="208" on="1"/>
        <pt x="499" y="101" on="0"/>
        <pt x="390" y="-16" on="0"/>
        <pt x="290" y="-16" on="1"/>
      </contour>
    </TTGlyph>
    <TTGlyph name="K" xMin="114" yMin="0" xMax="565" yMax="800">
      <contour>
        <pt x="222" y="800" on="1"/>
        <pt x="222" y="440" on="1"/>
        <pt x="447" y="800" on="1"/>
        <pt x="565" y="800" on="1"/>
        <pt x="307" y="390" on="1"/>
        <pt x="555" y="0" on="1"/>
        <pt x="431" y="0" on="1"/>
        <pt x="222" y="332" on="1"/>
        <pt x="222" y="0" on="1"/>
        <pt x="114" y="0" on="1"/>
        <pt x="114" y="800" on="1"/>
      </contour>
    </TTGlyph>
    <TTGlyph name="L" xMin="150" yMin="0" xMax="544" yMax="800">
      <contour>
        <pt x="150" y="800" on="1"/>
        <pt x="257" y="800" on="1"/>
        <pt x="257" y="104" on="1"/>
        <pt x="544" y="104" on="1"/>
        <pt x="544" y="0" on="1"/>
        <pt x="150" y="0" on="1"/>
      </contour>
    </TTGlyph>
    <TTGlyph name="M" xMin="63" yMin="0" xMax="537" yMax="800">
      <contour>
        <pt x="63" y="800" on="1"/>
        <pt x="241" y="800" on="1"/>
        <pt x="299" y="347" on="1"/>
        <pt x="309" y="347" on="1"/>
        <pt x="366" y="800" on="1"/>
        <pt x="537" y="800" on="1"/>
        <pt x="537" y="0" on="1"/>
        <pt x="435" y="0" on="1"/>
        <pt x="435" y="405" on="1"/>
        <pt x="442" y="706" on="1"/>
        <pt x="433" y="706" on="1"/>
        <pt x="374" y="272" on="1"/>
        <pt x="226" y="272" on="1"/>
        <pt x="167" y="706" on="1"/>
        <pt x="158" y="706" on="1"/>
        <pt x="165" y="405" on="1"/>
        <pt x="165" y="0" on="1"/>
        <pt x="63" y="0" on="1"/>
      </contour>
    </TTGlyph>
    <TTGlyph name="N" xMin="83" yMin="0" xMax="517" yMax="800">
      <contour>
        <pt x="83" y="800" on="1"/>
        <pt x="279" y="800" on="1"/>
        <pt x="406" y="85" on="1"/>
        <pt x="416" y="85" on="1"/>
        <pt x="409" y="386" on="1"/>
        <pt x="409" y="800" on="1"/>
        <pt x="517" y="800" on="1"/>
        <pt x="517" y="0" on="1"/>
        <pt x="321" y="0" on="1"/>
        <pt x="194" y="715" on="1"/>
        <pt x="184" y="715" on="1"/>
        <pt x="191" y="414" on="1"/>
        <pt x="191" y="0" on="1"/>
        <pt x="83" y="0" on="1"/>
      </contour>
    </TTGlyph>
    <TTGlyph name="O" xMin="58" yMin="-15" xMax="542" yMax="816">
      <contour>
        <pt x="176" y="-15" on="0"/>
        <pt x="58" y="188" on="0"/>
        <pt x="58" y="400" on="1"/>
        <pt x="58" y="612" on="0"/>
        <pt x="176" y="816" on="0"/>
        <pt x="300" y="816" on="1"/>
        <pt x="424" y="816" on="0"/>
        <pt x="542" y="612" on="0"/>
        <pt x="542" y="400" on="1"/>
        <pt x="542" y="188" on="0"/>
        <pt x="424" y="-15" on="0"/>
        <pt x="300" y="-15" on="1"/>
      </contour>
      <contour>
        <pt x="166" y="235" on="0"/>
        <pt x="230" y="85" on="0"/>
        <pt x="300" y="85" on="1"/>
        <pt x="370" y="85" on="0"/>
        <pt x="434" y="235" on="0"/>
        <pt x="434" y="400" on="1"/>
        <pt x="434" y="565" on="0"/>
        <pt x="370" y="715" on="0"/>
        <pt x="300" y="715" on="1"/>
        <pt x="230" y="715" on="0"/>
        <pt x="166" y="565" on="0"/>
        <pt x="166" y="400" on="1"/>
      </contour>
    </TTGlyph>
    <TTGlyph name="P" xMin="114" yMin="0" xMax="556" yMax="800">
      <contour>
        <pt x="114" y="800" on="1"/>
        <pt x="315" y="800" on="1"/>
        <pt x="427" y="800" on="0"/>
        <pt x="556" y="674" on="0"/>
        <pt x="556" y="565" on="1"/>
        <pt x="556" y="458" on="0"/>
        <pt x="427" y="334" on="0"/>
        <pt x="315" y="334" on="1"/>
        <pt x="222" y="334" on="1"/>
        <pt x="222" y="0" on="1"/>
        <pt x="114" y="0" on="1"/>
      </contour>
      <contour>
        <pt x="319" y="433" on="1"/>
        <pt x="379" y="433" on="0"/>
        <pt x="448" y="503" on="0"/>
        <pt x="448" y="564" on="1"/>
        <pt x="448" y="625" on="0"/>
        <pt x="379" y="696" on="0"/>
        <pt x="319" y="696" on="1"/>
        <pt x="222" y="696" on="1"/>
        <pt x="222" y="433" on="1"/>
      </contour>
    </TTGlyph>
    <TTGlyph name="Q" xMin="58" yMin="-216" xMax="542" yMax="816">
      <contour>
        <pt x="370" y="85" on="0"/>
        <pt x="434" y="235" on="0"/>
        <pt x="434" y="400" on="1"/>
        <pt x="434" y="565" on="0"/>
        <pt x="370" y="715" on="0"/>
        <pt x="300" y="715" on="1"/>
        <pt x="230" y="715" on="0"/>
        <pt x="166" y="565" on="0"/>
        <pt x="166" y="400" on="1"/>
        <pt x="166" y="235" on="0"/>
        <pt x="230" y="85" on="0"/>
        <pt x="300" y="85" on="1"/>
      </contour>
      <contour>
        <pt x="58" y="612" on="0"/>
        <pt x="176" y="816" on="0"/>
        <pt x="300" y="816" on="1"/>
        <pt x="424" y="816" on="0"/>
        <pt x="542" y="612" on="0"/>
        <pt x="542" y="400" on="1"/>
        <pt x="542" y="194" on="0"/>
        <pt x="431" y="-9" on="0"/>
        <pt x="315" y="-15" on="1"/>
        <pt x="519" y="-113" on="1"/>
        <pt x="519" y="-216" on="1"/>
        <pt x="281" y="-101" on="1"/>
        <pt x="281" y="-14" on="1"/>
        <pt x="167" y="-7" on="0"/>
        <pt x="58" y="196" on="0"/>
        <pt x="58" y="400" on="1"/>
      </contour>
    </TTGlyph>
    <TTGlyph name="R" xMin="101" yMin="0" xMax="564" yMax="800">
      <contour>
        <pt x="101" y="800" on="1"/>
        <pt x="292" y="800" on="1"/>
        <pt x="410" y="800" on="0"/>
        <pt x="545" y="677" on="0"/>
        <pt x="545" y="570" on="1"/>
        <pt x="545" y="488" on="0"/>
        <pt x="459" y="377" on="0"/>
        <pt x="381" y="357" on="1"/>
        <pt x="564" y="0" on="1"/>
        <pt x="443" y="0" on="1"/>
        <pt x="272" y="346" on="1"/>
        <pt x="209" y="346" on="1"/>
        <pt x="209" y="0" on="1"/>
        <pt x="101" y="0" on="1"/>
      </contour>
      <contour>
        <pt x="295" y="443" on="1"/>
        <pt x="363" y="443" on="0"/>
        <pt x="437" y="509" on="0"/>
        <pt x="437" y="570" on="1"/>
        <pt x="437" y="630" on="0"/>
        <pt x="363" y="696" on="0"/>
        <pt x="295" y="696" on="1"/>
        <pt x="209" y="696" on="1"/>
        <pt x="209" y="443" on="1"/>
      </contour>
    </TTGlyph>
    <TTGlyph name="S" xMin="83" yMin="-16" xMax="543" yMax="816">
      <contour>
        <pt x="196" y="145" on="0"/>
        <pt x="256" y="88" on="0"/>
        <pt x="313" y="88" on="1"/>
        <pt x="366" y="88" on="0"/>
        <pt x="421" y="156" on="0"/>
        <pt x="421" y="223" on="1"/>
        <pt x="421" y="323" on="0"/>
        <pt x="328" y="340" on="1"/>
        <pt x="282" y="348" on="1"/>
        <pt x="190" y="365" on="0"/>
        <pt x="91" y="482" on="0"/>
        <pt x="91" y="575" on="1"/>
        <pt x="91" y="691" on="0"/>
        <pt x="207" y="816" on="0"/>
        <pt x="314" y="816" on="1"/>
        <pt x="417" y="816" on="0"/>
        <pt x="535" y="692" on="0"/>
        <pt x="543" y="576" on="1"/>
        <pt x="436" y="576" on="1"/>
        <pt x="430" y="645" on="0"/>
        <pt x="370" y="712" on="0"/>
        <pt x="314" y="712" on="1"/>
        <pt x="258" y="712" on="0"/>
        <pt x="199" y="642" on="0"/>
        <pt x="199" y="575" on="1"/>
        <pt x="199" y="475" on="0"/>
        <pt x="292" y="458" on="1"/>
        <pt x="338" y="450" on="1"/>
        <pt x="430" y="433" on="0"/>
        <pt x="529" y="316" on="0"/>
        <pt x="529" y="223" on="1"/>
        <pt x="529" y="108" on="0"/>
        <pt x="417" y="-16" on="0"/>
        <pt x="313" y="-16" on="1"/>
        <pt x="207" y="-16" on="0"/>
        <pt x="91" y="95" on="0"/>
        <pt x="83" y="204" on="1"/>
        <pt x="191" y="204" on="1"/>
      </contour>
    </TTGlyph>
    <TTGlyph name="T" xMin="63" yMin="0" xMax="537" yMax="800">
      <contour>
        <pt x="246" y="696" on="1"/>
        <pt x="63" y="696" on="1"/>
        <pt x="63" y="800" on="1"/>
        <pt x="537" y="800" on="1"/>
        <pt x="537" y="696" on="1"/>
        <pt x="354" y="696" on="1"/>
        <pt x="354" y="0" on="1"/>
        <pt x="246" y="0" on="1"/>
      </contour>
    </TTGlyph>
    <TTGlyph name="U" xMin="77" yMin="-16" xMax="523" yMax="800">
      <contour>
        <pt x="185" y="800" on="1"/>
        <pt x="185" y="228" on="1"/>
        <pt x="185" y="159" on="0"/>
        <pt x="243" y="88" on="0"/>
        <pt x="300" y="88" on="1"/>
        <pt x="357" y="88" on="0"/>
        <pt x="415" y="159" on="0"/>
        <pt x="415" y="228" on="1"/>
        <pt x="415" y="800" on="1"/>
        <pt x="523" y="800" on="1"/>
        <pt x="523" y="228" on="1"/>
        <pt x="523" y="111" on="0"/>
        <pt x="407" y="-16" on="0"/>
        <pt x="300" y="-16" on="1"/>
        <pt x="193" y="-16" on="0"/>
        <pt x="77" y="111" on="0"/>
        <pt x="77" y="228" on="1"/>
        <pt x="77" y="800" on="1"/>
      </contour>
    </TTGlyph>
    <TTGlyph name="V" xMin="48" yMin="0" xMax="552" yMax="800">
      <contour>
        <pt x="303" y="93" on="1"/>
        <pt x="445" y="800" on="1"/>
        <pt x="552" y="800" on="1"/>
        <pt x="384" y="0" on="1"/>
        <pt x="216" y="0" on="1"/>
        <pt x="48" y="800" on="1"/>
        <pt x="160" y="800" on="1"/>
      </contour>
    </TTGlyph>
    <TTGlyph name="W" xMin="22" yMin="0" xMax="578" yMax="800">
      <contour>
        <pt x="183" y="151" on="1"/>
        <pt x="228" y="599" on="1"/>
        <pt x="380" y="599" on="1"/>
        <pt x="421" y="158" on="1"/>
        <pt x="468" y="800" on="1"/>
        <pt x="578" y="800" on="1"/>
        <pt x="501" y="0" on="1"/>
        <pt x="345" y="0" on="1"/>
        <pt x="300" y="471" on="1"/>
        <pt x="251" y="0" on="1"/>
        <pt x="99" y="0" on="1"/>
        <pt x="22" y="800" on="1"/>
        <pt x="136" y="800" on="1"/>
      </contour>
    </TTGlyph>
    <TTGlyph name="X" xMin="49" yMin="0" xMax="551" yMax="800">
      <contour>
        <pt x="300" y="445" on="1"/>
        <pt x="436" y="800" on="1"/>
        <pt x="551" y="800" on="1"/>
        <pt x="388" y="386" on="1"/>
        <pt x="539" y="0" on="1"/>
        <pt x="417" y="0" on="1"/>
        <pt x="300" y="326" on="1"/>
        <pt x="178" y="0" on="1"/>
        <pt x="61" y="0" on="1"/>
        <pt x="212" y="386" on="1"/>
        <pt x="49" y="800" on="1"/>
        <pt x="169" y="800" on="1"/>
      </contour>
    </TTGlyph>
    <TTGlyph name="Y" xMin="39" yMin="0" xMax="561" yMax="800">
      <contour>
        <pt x="301" y="455" on="1"/>
        <pt x="445" y="800" on="1"/>
        <pt x="561" y="800" on="1"/>
        <pt x="354" y="336" on="1"/>
        <pt x="354" y="0" on="1"/>
        <pt x="246" y="0" on="1"/>
        <pt x="246" y="336" on="1"/>
        <pt x="39" y="800" on="1"/>
        <pt x="157" y="800" on="1"/>
      </contour>
    </TTGlyph>
    <TTGlyph name="Z" xMin="93" yMin="0" xMax="507" yMax="800">
      <contour>
        <pt x="93" y="181" on="1"/>
        <pt x="440" y="696" on="1"/>
        <pt x="93" y="696" on="1"/>
        <pt x="93" y="800" on="1"/>
        <pt x="507" y="800" on="1"/>
        <pt x="507" y="619" on="1"/>
        <pt x="160" y="104" on="1"/>
        <pt x="507" y="104" on="1"/>
        <pt x="507" y="0" on="1"/>
        <pt x="93" y="0" on="1"/>
      </contour>
    </TTGlyph>
    <TTGlyph name="_part.multiply" xMin="99" yMin="149" xMax="501" yMax="551">
      <contour>
        <pt x="99" y="489" on="1"/>
        <pt x="161" y="551" on="1"/>
        <pt x="501" y="211" on="1"/>
        <pt x="439" y="149" on="1"/>
      </contour>
    </TTGlyph>
    <TTGlyph name="a" xMin="69" yMin="-16" xMax="486" yMax="615">
      <contour>
        <pt x="77" y="500" on="0"/>
        <pt x="195" y="615" on="0"/>
        <pt x="292" y="615" on="1"/>
        <pt x="385" y="615" on="0"/>
        <pt x="486" y="519" on="0"/>
        <pt x="486" y="430" on="1"/>
        <pt x="486" y="0" on="1"/>
        <pt x="382" y="0" on="1"/>
        <pt x="382" y="63" on="1"/>
        <pt x="353" y="63" on="1"/>
        <pt x="343" y="26" on="0"/>
        <pt x="284" y="-16" on="0"/>
        <pt x="242" y="-16" on="1"/>
        <pt x="175" y="-16" on="0"/>
        <pt x="93" y="76" on="0"/>
        <pt x="93" y="150" on="1"/>
        <pt x="93" y="229" on="0"/>
        <pt x="179" y="328" on="0"/>
        <pt x="262" y="345" on="1"/>
        <pt x="382" y="369" on="1"/>
        <pt x="382" y="411" on="1"/>
        <pt x="382" y="518" on="0"/>
        <pt x="292" y="518" on="1"/>
        <pt x="241" y="518" on="0"/>
        <pt x="179" y="457" on="0"/>
        <pt x="173" y="400" on="1"/>
        <pt x="69" y="400" on="1"/>
      </contour>
      <contour>
        <pt x="199" y="121" on="0"/>
        <pt x="238" y="79" on="0"/>
        <pt x="274" y="79" on="1"/>
        <pt x="304" y="79" on="0"/>
        <pt x="353" y="117" on="0"/>
        <pt x="382" y="184" on="0"/>
        <pt x="382" y="225" on="1"/>
        <pt x="382" y="275" on="1"/>
        <pt x="283" y="254" on="1"/>
        <pt x="243" y="246" on="0"/>
        <pt x="199" y="197" on="0"/>
        <pt x="199" y="159" on="1"/>
      </contour>
    </TTGlyph>
    <TTGlyph name="ampersand" xMin="73" yMin="-23" xMax="527" yMax="816">
      <contour>
        <pt x="158" y="529" on="0"/>
        <pt x="127" y="612" on="0"/>
        <pt x="127" y="652" on="1"/>
        <pt x="127" y="728" on="0"/>
        <pt x="209" y="816" on="0"/>
        <pt x="279" y="816" on="1"/>
        <pt x="348" y="816" on="0"/>
        <pt x="427" y="728" on="0"/>
        <pt x="427" y="652" on="1"/>
        <pt x="427" y="591" on="0"/>
        <pt x="375" y="494" on="0"/>
        <pt x="327" y="442" on="1"/>
        <pt x="417" y="301" on="1"/>
        <pt x="424" y="349" on="0"/>
        <pt x="424" y="416" on="1"/>
        <pt x="516" y="416" on="1"/>
        <pt x="510" y="292" on="0"/>
        <pt x="484" y="198" on="1"/>
        <pt x="527" y="130" on="1"/>
        <pt x="527" y="-23" on="1"/>
        <pt x="444" y="101" on="1"/>
        <pt x="377" y="-16" on="0"/>
        <pt x="262" y="-16" on="1"/>
        <pt x="177" y="-16" on="0"/>
        <pt x="73" y="98" on="0"/>
        <pt x="73" y="191" on="1"/>
        <pt x="73" y="248" on="0"/>
        <pt x="111" y="339" on="0"/>
        <pt x="166" y="407" on="0"/>
        <pt x="210" y="449" on="1"/>
        <pt x="192" y="476" on="1"/>
      </contour>
      <contour>
        <pt x="183" y="147" on="0"/>
        <pt x="231" y="88" on="0"/>
        <pt x="271" y="88" on="1"/>
        <pt x="349" y="88" on="0"/>
        <pt x="389" y="183" on="1"/>
        <pt x="262" y="372" on="1"/>
        <pt x="224" y="328" on="0"/>
        <pt x="183" y="244" on="0"/>
        <pt x="183" y="194" on="1"/>
      </contour>
      <contour>
        <pt x="228" y="619" on="0"/>
        <pt x="244" y="571" on="0"/>
        <pt x="262" y="543" on="1"/>
        <pt x="277" y="520" on="1"/>
        <pt x="326" y="579" on="0"/>
        <pt x="326" y="643" on="1"/>
        <pt x="326" y="675" on="0"/>
        <pt x="301" y="712" on="0"/>
        <pt x="279" y="712" on="1"/>
        <pt x="256" y="712" on="0"/>
        <pt x="228" y="674" on="0"/>
        <pt x="228" y="643" on="1"/>
      </contour>
    </TTGlyph>
    <TTGlyph name="approxequal" xMin="80" yMin="130" xMax="520" yMax="570">
      <component glyphName="asciitilde" x="0" y="118" flags="0x4"/>
      <component glyphName="asciitilde" x="0" y="-118" flags="0x4"/>
    </TTGlyph>
    <TTGlyph name="approxequal.case" xMin="80" yMin="180" xMax="520" yMax="620">
      <component glyphName="approxequal" x="0" y="50" flags="0x4"/>
    </TTGlyph>
    <TTGlyph name="asciicircum" xMin="98" yMin="541" xMax="502" yMax="816">
      <contour>
        <pt x="249" y="816" on="1"/>
        <pt x="351" y="816" on="1"/>
        <pt x="502" y="541" on="1"/>
        <pt x="400" y="541" on="1"/>
        <pt x="300" y="734" on="1"/>
        <pt x="200" y="541" on="1"/>
        <pt x="98" y="541" on="1"/>
      </contour>
    </TTGlyph>
    <TTGlyph name="asciitilde" xMin="80" yMin="248" xMax="520" yMax="452">
      <contour>
        <pt x="348" y="248" on="0"/>
        <pt x="297" y="285" on="0"/>
        <pt x="270" y="318" on="1"/>
        <pt x="250" y="341" on="0"/>
        <pt x="225" y="362" on="0"/>
        <pt x="209" y="362" on="1"/>
        <pt x="173" y="362" on="0"/>
        <pt x="165" y="291" on="1"/>
        <pt x="80" y="291" on="1"/>
        <pt x="87" y="371" on="0"/>
        <pt x="155" y="452" on="0"/>
        <pt x="212" y="452" on="1"/>
        <pt x="252" y="452" on="0"/>
        <pt x="303" y="415" on="0"/>
        <pt x="330" y="382" on="1"/>
        <pt x="350" y="359" on="0"/>
        <pt x="375" y="338" on="0"/>
        <pt x="391" y="338" on="1"/>
        <pt x="427" y="338" on="0"/>
        <pt x="435" y="409" on="1"/>
        <pt x="520" y="409" on="1"/>
        <pt x="513" y="329" on="0"/>
        <pt x="445" y="248" on="0"/>
        <pt x="388" y="248" on="1"/>
      </contour>
    </TTGlyph>
    <TTGlyph name="asciitilde.case" xMin="80" yMin="298" xMax="520" yMax="502">
      <component glyphName="asciitilde" x="0" y="50" flags="0x4"/>
    </TTGlyph>
    <TTGlyph name="asterisk" xMin="66" yMin="371" xMax="534" yMax="816">
      <contour>
        <pt x="354" y="816" on="1"/>
        <pt x="340" y="642" on="1"/>
        <pt x="500" y="709" on="1"/>
        <pt x="534" y="607" on="1"/>
        <pt x="365" y="566" on="1"/>
        <pt x="478" y="435" on="1"/>
        <pt x="390" y="371" on="1"/>
        <pt x="300" y="520" on="1"/>
        <pt x="210" y="371" on="1"/>
        <pt x="122" y="435" on="1"/>
        <pt x="235" y="566" on="1"/>
        <pt x="66" y="607" on="1"/>
        <pt x="100" y="709" on="1"/>
        <pt x="260" y="642" on="1"/>
        <pt x="246" y="816" on="1"/>
      </contour>
    </TTGlyph>
    <TTGlyph name="at" xMin="63" yMin="-133" xMax="535" yMax="816">
      <contour>
        <pt x="192" y="-133" on="0"/>
        <pt x="63" y="98" on="0"/>
        <pt x="63" y="340" on="1"/>
        <pt x="63" y="583" on="0"/>
        <pt x="190" y="816" on="0"/>
        <pt x="323" y="816" on="1"/>
        <pt x="432" y="816" on="0"/>
        <pt x="535" y="675" on="0"/>
        <pt x="535" y="529" on="1"/>
        <pt x="535" y="111" on="1"/>
        <pt x="461" y="111" on="1"/>
        <pt x="461" y="155" on="1"/>
        <pt x="432" y="155" on="1"/>
        <pt x="427" y="124" on="0"/>
        <pt x="387" y="95" on="0"/>
        <pt x="351" y="95" on="1"/>
        <pt x="291" y="95" on="0"/>
        <pt x="233" y="215" on="0"/>
        <pt x="233" y="340" on="1"/>
        <pt x="233" y="465" on="0"/>
        <pt x="291" y="585" on="0"/>
        <pt x="351" y="585" on="1"/>
        <pt x="413" y="585" on="0"/>
        <pt x="423" y="525" on="1"/>
        <pt x="452" y="525" on="1"/>
        <pt x="452" y="529" on="1"/>
        <pt x="452" y="634" on="0"/>
        <pt x="389" y="734" on="0"/>
        <pt x="323" y="734" on="1"/>
        <pt x="234" y="734" on="0"/>
        <pt x="148" y="541" on="0"/>
        <pt x="148" y="340" on="1"/>
        <pt x="148" y="139" on="0"/>
        <pt x="236" y="-54" on="0"/>
        <pt x="327" y="-54" on="1"/>
        <pt x="400" y="-54" on="0"/>
        <pt x="432" y="-25" on="1"/>
        <pt x="432" y="-103" on="1"/>
        <pt x="398" y="-133" on="0"/>
        <pt x="327" y="-133" on="1"/>
      </contour>
      <contour>
        <pt x="318" y="258" on="0"/>
        <pt x="352" y="179" on="0"/>
        <pt x="387" y="179" on="1"/>
        <pt x="422" y="179" on="0"/>
        <pt x="456" y="258" on="0"/>
        <pt x="456" y="340" on="1"/>
        <pt x="456" y="422" on="0"/>
        <pt x="422" y="501" on="0"/>
        <pt x="387" y="501" on="1"/>
        <pt x="352" y="501" on="0"/>
        <pt x="318" y="422" on="0"/>
        <pt x="318" y="340" on="1"/>
      </contour>
    </TTGlyph>
    <TTGlyph name="b" xMin="99" yMin="-16" xMax="536" yMax="848">
      <contour>
        <pt x="306" y="-16" on="0"/>
        <pt x="244" y="28" on="0"/>
        <pt x="232" y="69" on="1"/>
        <pt x="203" y="69" on="1"/>
        <pt x="203" y="0" on="1"/>
        <pt x="99" y="0" on="1"/>
        <pt x="99" y="848" on="1"/>
        <pt x="203" y="848" on="1"/>
        <pt x="203" y="530" on="1"/>
        <pt x="232" y="530" on="1"/>
        <pt x="244" y="571" on="0"/>
        <pt x="306" y="615" on="0"/>
        <pt x="351" y="615" on="1"/>
        <pt x="440" y="615" on="0"/>
        <pt x="536" y="451" on="0"/>
        <pt x="536" y="299" on="1"/>
        <pt x="536" y="147" on="0"/>
        <pt x="440" y="-16" on="0"/>
        <pt x="351" y="-16" on="1"/>
      </contour>
      <contour>
        <pt x="197" y="79" on="0"/>
        <pt x="315" y="79" on="1"/>
        <pt x="373" y="79" on="0"/>
        <pt x="432" y="190" on="0"/>
        <pt x="432" y="299" on="1"/>
        <pt x="432" y="408" on="0"/>
        <pt x="373" y="520" on="0"/>
        <pt x="315" y="520" on="1"/>
        <pt x="257" y="520" on="0"/>
        <pt x="197" y="409" on="0"/>
        <pt x="197" y="299" on="1"/>
      </contour>
    </TTGlyph>
    <TTGlyph name="backslash" xMin="108" yMin="-170" xMax="492" yMax="848">
      <contour>
        <pt x="208" y="848" on="1"/>
        <pt x="492" y="-170" on="1"/>
        <pt x="392" y="-170" on="1"/>
        <pt x="108" y="848" on="1"/>
      </contour>
    </TTGlyph>
    <TTGlyph name="bar" xMin="255" yMin="-60" xMax="345" yMax="860">
      <contour>
        <pt x="345" y="-60" on="1"/>
        <pt x="255" y="-60" on="1"/>
        <pt x="255" y="860" on="1"/>
        <pt x="345" y="860" on="1"/>
      </contour>
    </TTGlyph>
    <TTGlyph name="braceleft" xMin="209" yMin="-155" xMax="470" yMax="915">
      <contour>
        <pt x="424" y="819" on="0"/>
        <pt x="371" y="768" on="0"/>
        <pt x="371" y="727" on="1"/>
        <pt x="371" y="696" on="0"/>
        <pt x="381" y="630" on="1"/>
        <pt x="391" y="562" on="0"/>
        <pt x="391" y="532" on="1"/>
        <pt x="391" y="466" on="0"/>
        <pt x="334" y="394" on="0"/>
        <pt x="276" y="387" on="1"/>
        <pt x="276" y="373" on="1"/>
        <pt x="334" y="366" on="0"/>
        <pt x="391" y="294" on="0"/>
        <pt x="391" y="228" on="1"/>
        <pt x="391" y="197" on="0"/>
        <pt x="381" y="131" on="1"/>
        <pt x="371" y="63" on="0"/>
        <pt x="371" y="33" on="1"/>
        <pt x="371" y="-8" on="0"/>
        <pt x="424" y="-59" on="0"/>
        <pt x="470" y="-64" on="1"/>
        <pt x="470" y="-155" on="1"/>
        <pt x="383" y="-149" on="0"/>
        <pt x="276" y="-40" on="0"/>
        <pt x="276" y="42" on="1"/>
        <pt x="276" y="67" on="0"/>
        <pt x="286" y="123" on="1"/>
        <pt x="296" y="179" on="0"/>
        <pt x="296" y="205" on="1"/>
        <pt x="296" y="268" on="0"/>
        <pt x="254" y="326" on="0"/>
        <pt x="209" y="325" on="1"/>
        <pt x="209" y="435" on="1"/>
        <pt x="254" y="434" on="0"/>
        <pt x="296" y="492" on="0"/>
        <pt x="296" y="555" on="1"/>
        <pt x="296" y="581" on="0"/>
        <pt x="286" y="637" on="1"/>
        <pt x="276" y="693" on="0"/>
        <pt x="276" y="718" on="1"/>
        <pt x="276" y="800" on="0"/>
        <pt x="383" y="909" on="0"/>
        <pt x="470" y="915" on="1"/>
        <pt x="470" y="824" on="1"/>
      </contour>
    </TTGlyph>
    <TTGlyph name="braceright" xMin="130" yMin="-155" xMax="391" yMax="915">
      <contour>
        <pt x="217" y="909" on="0"/>
        <pt x="324" y="800" on="0"/>
        <pt x="324" y="718" on="1"/>
        <pt x="324" y="693" on="0"/>
        <pt x="314" y="637" on="1"/>
        <pt x="304" y="581" on="0"/>
        <pt x="304" y="555" on="1"/>
        <pt x="304" y="492" on="0"/>
        <pt x="346" y="434" on="0"/>
        <pt x="391" y="435" on="1"/>
        <pt x="391" y="325" on="1"/>
        <pt x="346" y="326" on="0"/>
        <pt x="304" y="268" on="0"/>
        <pt x="304" y="205" on="1"/>
        <pt x="304" y="179" on="0"/>
        <pt x="314" y="123" on="1"/>
        <pt x="324" y="67" on="0"/>
        <pt x="324" y="42" on="1"/>
        <pt x="324" y="-40" on="0"/>
        <pt x="217" y="-149" on="0"/>
        <pt x="130" y="-155" on="1"/>
        <pt x="130" y="-64" on="1"/>
        <pt x="176" y="-59" on="0"/>
        <pt x="229" y="-8" on="0"/>
        <pt x="229" y="33" on="1"/>
        <pt x="229" y="63" on="0"/>
        <pt x="219" y="131" on="1"/>
        <pt x="209" y="197" on="0"/>
        <pt x="209" y="228" on="1"/>
        <pt x="209" y="294" on="0"/>
        <pt x="266" y="366" on="0"/>
        <pt x="324" y="373" on="1"/>
        <pt x="324" y="387" on="1"/>
        <pt x="266" y="394" on="0"/>
        <pt x="209" y="466" on="0"/>
        <pt x="209" y="532" on="1"/>
        <pt x="209" y="562" on="0"/>
        <pt x="219" y="630" on="1"/>
        <pt x="229" y="696" on="0"/>
        <pt x="229" y="727" on="1"/>
        <pt x="229" y="768" on="0"/>
        <pt x="176" y="819" on="0"/>
        <pt x="130" y="824" on="1"/>
        <pt x="130" y="915" on="1"/>
      </contour>
    </TTGlyph>
    <TTGlyph name="bracketleft" xMin="264" yMin="-145" xMax="470" yMax="905">
      <contour>
        <pt x="470" y="816" on="1"/>
        <pt x="357" y="816" on="1"/>
        <pt x="357" y="-56" on="1"/>
        <pt x="470" y="-56" on="1"/>
        <pt x="470" y="-145" on="1"/>
        <pt x="264" y="-145" on="1"/>
        <pt x="264" y="905" on="1"/>
        <pt x="470" y="905" on="1"/>
      </contour>
    </TTGlyph>
    <TTGlyph name="bracketright" xMin="130" yMin="-145" xMax="336" yMax="905">
      <contour>
        <pt x="336" y="905" on="1"/>
        <pt x="336" y="-145" on="1"/>
        <pt x="130" y="-145" on="1"/>
        <pt x="130" y="-56" on="1"/>
        <pt x="243" y="-56" on="1"/>
        <pt x="243" y="816" on="1"/>
        <pt x="130" y="816" on="1"/>
        <pt x="130" y="905" on="1"/>
      </contour>
    </TTGlyph>
    <TTGlyph name="bullet" xMin="129" yMin="179" xMax="471" yMax="521">
      <contour>
        <pt x="216" y="179" on="0"/>
        <pt x="129" y="266" on="0"/>
        <pt x="129" y="350" on="1"/>
        <pt x="129" y="434" on="0"/>
        <pt x="216" y="521" on="0"/>
        <pt x="300" y="521" on="1"/>
        <pt x="384" y="521" on="0"/>
        <pt x="471" y="434" on="0"/>
        <pt x="471" y="350" on="1"/>
        <pt x="471" y="266" on="0"/>
        <pt x="384" y="179" on="0"/>
        <pt x="300" y="179" on="1"/>
      </contour>
    </TTGlyph>
    <TTGlyph name="c" xMin="93" yMin="-16" xMax="529" yMax="615">
      <contour>
        <pt x="208" y="-16" on="0"/>
        <pt x="93" y="146" on="0"/>
        <pt x="93" y="297" on="1"/>
        <pt x="93" y="449" on="0"/>
        <pt x="212" y="615" on="0"/>
        <pt x="322" y="615" on="1"/>
        <pt x="413" y="615" on="0"/>
        <pt x="523" y="483" on="0"/>
        <pt x="529" y="368" on="1"/>
        <pt x="432" y="368" on="1"/>
        <pt x="425" y="442" on="0"/>
        <pt x="369" y="518" on="0"/>
        <pt x="321" y="518" on="1"/>
        <pt x="195" y="518" on="0"/>
        <pt x="195" y="297" on="1"/>
        <pt x="195" y="81" on="0"/>
        <pt x="315" y="81" on="1"/>
        <pt x="411" y="81" on="0"/>
        <pt x="422" y="213" on="1"/>
        <pt x="519" y="213" on="1"/>
        <pt x="514" y="106" on="0"/>
        <pt x="405" y="-16" on="0"/>
        <pt x="315" y="-16" on="1"/>
      </contour>
    </TTGlyph>
    <TTGlyph name="cent" xMin="93" yMin="-101" xMax="529" yMax="699">
      <contour>
        <pt x="278" y="-13" on="1"/>
        <pt x="189" y="1" on="0"/>
        <pt x="93" y="160" on="0"/>
        <pt x="93" y="297" on="1"/>
        <pt x="93" y="433" on="0"/>
        <pt x="189" y="595" on="0"/>
        <pt x="278" y="611" on="1"/>
        <pt x="278" y="699" on="1"/>
        <pt x="354" y="699" on="1"/>
        <pt x="354" y="613" on="1"/>
        <pt x="431" y="602" on="0"/>
        <pt x="524" y="473" on="0"/>
        <pt x="529" y="368" on="1"/>
        <pt x="432" y="368" on="1"/>
        <pt x="422" y="488" on="0"/>
        <pt x="354" y="513" on="1"/>
        <pt x="354" y="88" on="1"/>
        <pt x="414" y="111" on="0"/>
        <pt x="422" y="213" on="1"/>
        <pt x="519" y="213" on="1"/>
        <pt x="515" y="118" on="0"/>
        <pt x="428" y="0" on="0"/>
        <pt x="354" y="-13" on="1"/>
        <pt x="354" y="-101" on="1"/>
        <pt x="278" y="-101" on="1"/>
      </contour>
      <contour>
        <pt x="195" y="119" on="0"/>
        <pt x="278" y="87" on="1"/>
        <pt x="278" y="510" on="1"/>
        <pt x="195" y="475" on="0"/>
        <pt x="195" y="297" on="1"/>
      </contour>
    </TTGlyph>
    <TTGlyph name="cent.bold" xMin="93" yMin="-101" xMax="529" yMax="699">
      <contour>
        <pt x="354" y="699" on="1"/>
        <pt x="354" y="613" on="1"/>
        <pt x="431" y="602" on="0"/>
        <pt x="524" y="473" on="0"/>
        <pt x="529" y="368" on="1"/>
        <pt x="432" y="368" on="1"/>
        <pt x="425" y="442" on="0"/>
        <pt x="369" y="518" on="0"/>
        <pt x="321" y="518" on="1"/>
        <pt x="195" y="518" on="0"/>
        <pt x="195" y="297" on="1"/>
        <pt x="195" y="81" on="0"/>
        <pt x="315" y="81" on="1"/>
        <pt x="411" y="81" on="0"/>
        <pt x="422" y="213" on="1"/>
        <pt x="519" y="213" on="1"/>
        <pt x="515" y="118" on="0"/>
        <pt x="428" y="0" on="0"/>
        <pt x="354" y="-13" on="1"/>
        <pt x="354" y="-101" on="1"/>
        <pt x="278" y="-101" on="1"/>
        <pt x="278" y="-13" on="1"/>
        <pt x="189" y="1" on="0"/>
        <pt x="93" y="160" on="0"/>
        <pt x="93" y="297" on="1"/>
        <pt x="93" y="433" on="0"/>
        <pt x="189" y="595" on="0"/>
        <pt x="278" y="611" on="1"/>
        <pt x="278" y="699" on="1"/>
      </contour>
    </TTGlyph>
    <TTGlyph name="colon" xMin="224" yMin="-8" xMax="376" yMax="606">
      <component glyphName="period" x="0" y="0" flags="0x0"/>
      <component glyphName="period" x="0" y="425" flags="0x4"/>
    </TTGlyph>
    <TTGlyph name="colon.case" xMin="224" yMin="93" xMax="376" yMax="707">
      <component glyphName="colon" x="0" y="101" flags="0x4"/>
    </TTGlyph>
    <TTGlyph name="comma" xMin="216" yMin="-179" xMax="385" yMax="181">
      <contour>
        <pt x="263" y="-8" on="0"/>
        <pt x="224" y="40" on="0"/>
        <pt x="224" y="87" on="1"/>
        <pt x="224" y="181" on="0"/>
        <pt x="300" y="181" on="1"/>
        <pt x="344" y="181" on="0"/>
        <pt x="385" y="125" on="0"/>
        <pt x="385" y="67" on="1"/>
        <pt x="385" y="-10" on="0"/>
        <pt x="356" y="-131" on="0"/>
        <pt x="326" y="-179" on="1"/>
        <pt x="216" y="-179" on="1"/>
        <pt x="305" y="-101" on="0"/>
        <pt x="318" y="-6" on="1"/>
        <pt x="308" y="-8" on="0"/>
        <pt x="300" y="-8" on="1"/>
      </contour>
    </TTGlyph>
    <TTGlyph name="copyright" xMin="58" yMin="114" xMax="542" yMax="686">
      <contour>
        <pt x="228" y="114" on="0"/>
        <pt x="118" y="185" on="0"/>
        <pt x="58" y="315" on="0"/>
        <pt x="58" y="400" on="1"/>
        <pt x="58" y="485" on="0"/>
        <pt x="118" y="615" on="0"/>
        <pt x="228" y="686" on="0"/>
        <pt x="300" y="686" on="1"/>
        <pt x="372" y="686" on="0"/>
        <pt x="482" y="615" on="0"/>
        <pt x="542" y="485" on="0"/>
        <pt x="542" y="400" on="1"/>
        <pt x="542" y="315" on="0"/>
        <pt x="482" y="185" on="0"/>
        <pt x="372" y="114" on="0"/>
        <pt x="300" y="114" on="1"/>
      </contour>
      <contour>
        <pt x="117" y="294" on="0"/>
        <pt x="215" y="173" on="0"/>
        <pt x="300" y="173" on="1"/>
        <pt x="385" y="173" on="0"/>
        <pt x="483" y="294" on="0"/>
        <pt x="483" y="400" on="1"/>
        <pt x="483" y="506" on="0"/>
        <pt x="385" y="627" on="0"/>
        <pt x="300" y="627" on="1"/>
        <pt x="215" y="627" on="0"/>
        <pt x="117" y="506" on="0"/>
        <pt x="117" y="400" on="1"/>
      </contour>
      <contour>
        <pt x="183" y="468" on="0"/>
        <pt x="249" y="550" on="0"/>
        <pt x="303" y="550" on="1"/>
        <pt x="350" y="550" on="0"/>
        <pt x="412" y="485" on="0"/>
        <pt x="418" y="429" on="1"/>
        <pt x="358" y="429" on="1"/>
        <pt x="354" y="459" on="0"/>
        <pt x="325" y="492" on="0"/>
        <pt x="303" y="492" on="1"/>
        <pt x="274" y="492" on="0"/>
        <pt x="241" y="443" on="0"/>
        <pt x="241" y="400" on="1"/>
        <pt x="241" y="360" on="0"/>
        <pt x="274" y="311" on="0"/>
        <pt x="301" y="311" on="1"/>
        <pt x="320" y="311" on="0"/>
        <pt x="344" y="338" on="0"/>
        <pt x="347" y="363" on="1"/>
        <pt x="407" y="363" on="1"/>
        <pt x="403" y="313" on="0"/>
        <pt x="345" y="253" on="0"/>
        <pt x="301" y="253" on="1"/>
        <pt x="249" y="253" on="0"/>
        <pt x="183" y="336" on="0"/>
        <pt x="183" y="400" on="1"/>
      </contour>
    </TTGlyph>
    <TTGlyph name="currency" xMin="47" yMin="97" xMax="553" yMax="603">
      <contour>
        <pt x="235" y="140" on="0"/>
        <pt x="180" y="177" on="1"/>
        <pt x="101" y="97" on="1"/>
        <pt x="47" y="151" on="1"/>
        <pt x="127" y="230" on="1"/>
        <pt x="90" y="285" on="0"/>
        <pt x="90" y="350" on="1"/>
        <pt x="90" y="415" on="0"/>
        <pt x="127" y="470" on="1"/>
        <pt x="47" y="549" on="1"/>
        <pt x="101" y="603" on="1"/>
        <pt x="180" y="523" on="1"/>
        <pt x="235" y="560" on="0"/>
        <pt x="300" y="560" on="1"/>
        <pt x="365" y="560" on="0"/>
        <pt x="420" y="523" on="1"/>
        <pt x="499" y="603" on="1"/>
        <pt x="553" y="549" on="1"/>
        <pt x="473" y="470" on="1"/>
        <pt x="510" y="415" on="0"/>
        <pt x="510" y="350" on="1"/>
        <pt x="510" y="285" on="0"/>
        <pt x="473" y="230" on="1"/>
        <pt x="553" y="151" on="1"/>
        <pt x="499" y="97" on="1"/>
        <pt x="420" y="177" on="1"/>
        <pt x="365" y="140" on="0"/>
        <pt x="300" y="140" on="1"/>
      </contour>
      <contour>
        <pt x="175" y="298" on="0"/>
        <pt x="248" y="225" on="0"/>
        <pt x="300" y="225" on="1"/>
        <pt x="352" y="225" on="0"/>
        <pt x="425" y="298" on="0"/>
        <pt x="425" y="350" on="1"/>
        <pt x="425" y="402" on="0"/>
        <pt x="352" y="475" on="0"/>
        <pt x="300" y="475" on="1"/>
        <pt x="248" y="475" on="0"/>
        <pt x="175" y="402" on="0"/>
        <pt x="175" y="350" on="1"/>
      </contour>
    </TTGlyph>
    <TTGlyph name="d" xMin="64" yMin="-16" xMax="501" yMax="848">
      <contour>
        <pt x="160" y="-16" on="0"/>
        <pt x="64" y="147" on="0"/>
        <pt x="64" y="299" on="1"/>
        <pt x="64" y="451" on="0"/>
        <pt x="160" y="615" on="0"/>
        <pt x="249" y="615" on="1"/>
        <pt x="294" y="615" on="0"/>
        <pt x="356" y="571" on="0"/>
        <pt x="368" y="530" on="1"/>
        <pt x="397" y="530" on="1"/>
        <pt x="397" y="848" on="1"/>
        <pt x="501" y="848" on="1"/>
        <pt x="501" y="0" on="1"/>
        <pt x="397" y="0" on="1"/>
        <pt x="397" y="69" on="1"/>
        <pt x="368" y="69" on="1"/>
        <pt x="356" y="28" on="0"/>
        <pt x="294" y="-16" on="0"/>
        <pt x="249" y="-16" on="1"/>
      </contour>
      <contour>
        <pt x="168" y="190" on="0"/>
        <pt x="227" y="79" on="0"/>
        <pt x="285" y="79" on="1"/>
        <pt x="403" y="79" on="0"/>
        <pt x="403" y="299" on="1"/>
        <pt x="403" y="409" on="0"/>
        <pt x="343" y="520" on="0"/>
        <pt x="285" y="520" on="1"/>
        <pt x="227" y="520" on="0"/>
        <pt x="168" y="408" on="0"/>
        <pt x="168" y="299" on="1"/>
      </contour>
    </TTGlyph>
    <TTGlyph name="divide" xMin="83" yMin="108" xMax="517" yMax="592">
      <component glyphName="minus" x="0" y="0" flags="0x0"/>
      <component glyphName="uni0307" x="216" y="-255" flags="0x4"/>
      <component glyphName="uni0307" x="216" y="-584" flags="0x4"/>
    </TTGlyph>
    <TTGlyph name="divide.case" xMin="83" yMin="158" xMax="517" yMax="642">
      <component glyphName="divide" x="0" y="50" flags="0x4"/>
    </TTGlyph>
    <TTGlyph name="dollar" xMin="83" yMin="-100" xMax="543" yMax="900">
      <contour>
        <pt x="196" y="156" on="0"/>
        <pt x="236" y="101" on="0"/>
        <pt x="273" y="92" on="1"/>
        <pt x="273" y="350" on="1"/>
        <pt x="186" y="368" on="0"/>
        <pt x="91" y="485" on="0"/>
        <pt x="91" y="575" on="1"/>
        <pt x="91" y="679" on="0"/>
        <pt x="185" y="802" on="0"/>
        <pt x="273" y="813" on="1"/>
        <pt x="273" y="900" on="1"/>
        <pt x="349" y="900" on="1"/>
        <pt x="349" y="814" on="1"/>
        <pt x="437" y="804" on="0"/>
        <pt x="536" y="681" on="0"/>
        <pt x="543" y="576" on="1"/>
        <pt x="436" y="576" on="1"/>
        <pt x="425" y="690" on="0"/>
        <pt x="349" y="708" on="1"/>
        <pt x="349" y="448" on="1"/>
        <pt x="435" y="429" on="0"/>
        <pt x="529" y="313" on="0"/>
        <pt x="529" y="223" on="1"/>
        <pt x="529" y="119" on="0"/>
        <pt x="435" y="-3" on="0"/>
        <pt x="349" y="-14" on="1"/>
        <pt x="349" y="-100" on="1"/>
        <pt x="273" y="-100" on="1"/>
        <pt x="273" y="-14" on="1"/>
        <pt x="98" y="7" on="0"/>
        <pt x="83" y="204" on="1"/>
        <pt x="191" y="204" on="1"/>
      </contour>
      <contour>
        <pt x="199" y="486" on="0"/>
        <pt x="273" y="463" on="1"/>
        <pt x="273" y="706" on="1"/>
        <pt x="199" y="683" on="0"/>
        <pt x="199" y="575" on="1"/>
      </contour>
      <contour>
        <pt x="421" y="114" on="0"/>
        <pt x="421" y="223" on="1"/>
        <pt x="421" y="310" on="0"/>
        <pt x="349" y="335" on="1"/>
        <pt x="349" y="93" on="1"/>
      </contour>
    </TTGlyph>
    <TTGlyph name="dollar.bold" xMin="83" yMin="-100" xMax="543" yMax="900">
      <contour>
        <pt x="196" y="145" on="0"/>
        <pt x="256" y="88" on="0"/>
        <pt x="313" y="88" on="1"/>
        <pt x="366" y="88" on="0"/>
        <pt x="421" y="156" on="0"/>
        <pt x="421" y="223" on="1"/>
        <pt x="421" y="323" on="0"/>
        <pt x="328" y="340" on="1"/>
        <pt x="282" y="348" on="1"/>
        <pt x="190" y="365" on="0"/>
        <pt x="91" y="482" on="0"/>
        <pt x="91" y="575" on="1"/>
        <pt x="91" y="679" on="0"/>
        <pt x="185" y="802" on="0"/>
        <pt x="273" y="813" on="1"/>
        <pt x="273" y="900" on="1"/>
        <pt x="349" y="900" on="1"/>
        <pt x="349" y="814" on="1"/>
        <pt x="437" y="804" on="0"/>
        <pt x="536" y="681" on="0"/>
        <pt x="543" y="576" on="1"/>
        <pt x="436" y="576" on="1"/>
        <pt x="430" y="645" on="0"/>
        <pt x="370" y="712" on="0"/>
        <pt x="314" y="712" on="1"/>
        <pt x="258" y="712" on="0"/>
        <pt x="199" y="642" on="0"/>
        <pt x="199" y="575" on="1"/>
        <pt x="199" y="475" on="0"/>
        <pt x="292" y="458" on="1"/>
        <pt x="338" y="450" on="1"/>
        <pt x="430" y="433" on="0"/>
        <pt x="529" y="316" on="0"/>
        <pt x="529" y="223" on="1"/>
        <pt x="529" y="119" on="0"/>
        <pt x="435" y="-3" on="0"/>
        <pt x="349" y="-14" on="1"/>
        <pt x="349" y="-100" on="1"/>
        <pt x="273" y="-100" on="1"/>
        <pt x="273" y="-14" on="1"/>
        <pt x="98" y="7" on="0"/>
        <pt x="83" y="204" on="1"/>
        <pt x="191" y="204" on="1"/>
      </contour>
    </TTGlyph>
    <TTGlyph name="dotlessi" xMin="128" yMin="0" xMax="521" yMax="599">
      <contour>
        <pt x="377" y="599" on="1"/>
        <pt x="377" y="96" on="1"/>
        <pt x="521" y="96" on="1"/>
        <pt x="521" y="0" on="1"/>
        <pt x="128" y="0" on="1"/>
        <pt x="128" y="96" on="1"/>
        <pt x="273" y="96" on="1"/>
        <pt x="273" y="503" on="1"/>
        <pt x="128" y="503" on="1"/>
        <pt x="128" y="599" on="1"/>
      </contour>
    </TTGlyph>
    <TTGlyph name="e" xMin="90" yMin="-16" xMax="523" yMax="615">
      <contour>
        <pt x="90" y="454" on="0"/>
        <pt x="204" y="615" on="0"/>
        <pt x="310" y="615" on="1"/>
        <pt x="410" y="615" on="0"/>
        <pt x="511" y="465" on="0"/>
        <pt x="511" y="317" on="1"/>
        <pt x="511" y="292" on="0"/>
        <pt x="509" y="266" on="1"/>
        <pt x="192" y="266" on="1"/>
        <pt x="196" y="171" on="0"/>
        <pt x="256" y="79" on="0"/>
        <pt x="312" y="79" on="1"/>
        <pt x="357" y="79" on="0"/>
        <pt x="414" y="130" on="0"/>
        <pt x="427" y="184" on="1"/>
        <pt x="523" y="184" on="1"/>
        <pt x="505" y="85" on="0"/>
        <pt x="399" y="-16" on="0"/>
        <pt x="312" y="-16" on="1"/>
        <pt x="202" y="-16" on="0"/>
        <pt x="90" y="146" on="0"/>
        <pt x="90" y="305" on="1"/>
      </contour>
      <contour>
        <pt x="414" y="356" on="1"/>
        <pt x="410" y="439" on="0"/>
        <pt x="358" y="520" on="0"/>
        <pt x="310" y="520" on="1"/>
        <pt x="207" y="520" on="0"/>
        <pt x="193" y="356" on="1"/>
      </contour>
    </TTGlyph>
    <TTGlyph name="eight" xMin="52" yMin="-16" xMax="548" yMax="816">
      <contour>
        <pt x="362" y="453" on="0"/>
        <pt x="434" y="523" on="0"/>
        <pt x="434" y="582" on="1"/>
        <pt x="434" y="642" on="0"/>
        <pt x="362" y="712" on="0"/>
        <pt x="300" y="712" on="1"/>
        <pt x="238" y="712" on="0"/>
        <pt x="166" y="642" on="0"/>
        <pt x="166" y="582" on="1"/>
        <pt x="166" y="523" on="0"/>
        <pt x="238" y="453" on="0"/>
        <pt x="300" y="453" on="1"/>
      </contour>
      <contour>
        <pt x="52" y="280" on="0"/>
        <pt x="120" y="375" on="0"/>
        <pt x="178" y="387" on="1"/>
        <pt x="178" y="416" on="1"/>
        <pt x="121" y="429" on="0"/>
        <pt x="56" y="522" on="0"/>
        <pt x="56" y="592" on="1"/>
        <pt x="56" y="696" on="0"/>
        <pt x="186" y="816" on="0"/>
        <pt x="300" y="816" on="1"/>
        <pt x="414" y="816" on="0"/>
        <pt x="544" y="696" on="0"/>
        <pt x="544" y="592" on="1"/>
        <pt x="544" y="522" on="0"/>
        <pt x="479" y="429" on="0"/>
        <pt x="422" y="416" on="1"/>
        <pt x="422" y="387" on="1"/>
        <pt x="480" y="375" on="0"/>
        <pt x="548" y="280" on="0"/>
        <pt x="548" y="209" on="1"/>
        <pt x="548" y="105" on="0"/>
        <pt x="415" y="-16" on="0"/>
        <pt x="300" y="-16" on="1"/>
        <pt x="185" y="-16" on="0"/>
        <pt x="52" y="105" on="0"/>
        <pt x="52" y="209" on="1"/>
      </contour>
      <contour>
        <pt x="162" y="158" on="0"/>
        <pt x="236" y="88" on="0"/>
        <pt x="300" y="88" on="1"/>
        <pt x="364" y="88" on="0"/>
        <pt x="438" y="158" on="0"/>
        <pt x="438" y="220" on="1"/>
        <pt x="438" y="281" on="0"/>
        <pt x="364" y="351" on="0"/>
        <pt x="300" y="351" on="1"/>
        <pt x="236" y="351" on="0"/>
        <pt x="162" y="281" on="0"/>
        <pt x="162" y="220" on="1"/>
      </contour>
    </TTGlyph>
    <TTGlyph name="ellipsis" xMin="41" yMin="-8" xMax="559" yMax="181">
      <contour>
        <pt x="269" y="-8" on="0"/>
        <pt x="238" y="40" on="0"/>
        <pt x="238" y="87" on="1"/>
        <pt x="238" y="181" on="0"/>
        <pt x="300" y="181" on="1"/>
        <pt x="363" y="181" on="0"/>
        <pt x="363" y="87" on="1"/>
        <pt x="363" y="-8" on="0"/>
        <pt x="300" y="-8" on="1"/>
      </contour>
      <contour>
        <pt x="41" y="181" on="0"/>
        <pt x="103" y="181" on="1"/>
        <pt x="166" y="181" on="0"/>
        <pt x="166" y="87" on="1"/>
        <pt x="166" y="-8" on="0"/>
        <pt x="103" y="-8" on="1"/>
        <pt x="72" y="-8" on="0"/>
        <pt x="41" y="40" on="0"/>
        <pt x="41" y="87" on="1"/>
      </contour>
      <contour>
        <pt x="434" y="181" on="0"/>
        <pt x="496" y="181" on="1"/>
        <pt x="559" y="181" on="0"/>
        <pt x="559" y="87" on="1"/>
        <pt x="559" y="-8" on="0"/>
        <pt x="496" y="-8" on="1"/>
        <pt x="465" y="-8" on="0"/>
        <pt x="434" y="40" on="0"/>
        <pt x="434" y="87" on="1"/>
      </contour>
    </TTGlyph>
    <TTGlyph name="emdash" xMin="43" yMin="303" xMax="557" yMax="397">
      <contour>
        <pt x="557" y="397" on="1"/>
        <pt x="557" y="303" on="1"/>
        <pt x="43" y="303" on="1"/>
        <pt x="43" y="397" on="1"/>
      </contour>
    </TTGlyph>
    <TTGlyph name="emdash.case" xMin="43" yMin="353" xMax="557" yMax="447">
      <component glyphName="emdash" x="0" y="50" flags="0x4"/>
    </TTGlyph>
    <TTGlyph name="endash" xMin="68" yMin="303" xMax="532" yMax="397">
      <contour>
        <pt x="532" y="397" on="1"/>
        <pt x="532" y="303" on="1"/>
        <pt x="68" y="303" on="1"/>
        <pt x="68" y="397" on="1"/>
      </contour>
    </TTGlyph>
    <TTGlyph name="endash.case" xMin="68" yMin="353" xMax="532" yMax="447">
      <component glyphName="endash" x="0" y="50" flags="0x4"/>
    </TTGlyph>
    <TTGlyph name="equal" xMin="90" yMin="173" xMax="510" yMax="527">
      <contour>
        <pt x="90" y="527" on="1"/>
        <pt x="510" y="527" on="1"/>
        <pt x="510" y="433" on="1"/>
        <pt x="90" y="433" on="1"/>
      </contour>
      <contour>
        <pt x="90" y="267" on="1"/>
        <pt x="510" y="267" on="1"/>
        <pt x="510" y="173" on="1"/>
        <pt x="90" y="173" on="1"/>
      </contour>
    </TTGlyph>
    <TTGlyph name="equal.case" xMin="90" yMin="223" xMax="510" yMax="577">
      <component glyphName="equal" x="0" y="50" flags="0x4"/>
    </TTGlyph>
    <TTGlyph name="exclam" xMin="224" yMin="-7" xMax="376" yMax="800">
      <contour>
        <pt x="354" y="800" on="1"/>
        <pt x="354" y="225" on="1"/>
        <pt x="246" y="225" on="1"/>
        <pt x="246" y="800" on="1"/>
      </contour>
      <contour>
        <pt x="224" y="159" on="0"/>
        <pt x="300" y="159" on="1"/>
        <pt x="376" y="159" on="0"/>
        <pt x="376" y="77" on="1"/>
        <pt x="376" y="36" on="0"/>
        <pt x="337" y="-7" on="0"/>
        <pt x="300" y="-7" on="1"/>
        <pt x="263" y="-7" on="0"/>
        <pt x="224" y="36" on="0"/>
        <pt x="224" y="77" on="1"/>
      </contour>
    </TTGlyph>
    <TTGlyph name="f" xMin="117" yMin="0" xMax="581" yMax="864">
      <contour>
        <pt x="227" y="0" on="1"/>
        <pt x="227" y="503" on="1"/>
        <pt x="117" y="503" on="1"/>
        <pt x="117" y="599" on="1"/>
        <pt x="227" y="599" on="1"/>
        <pt x="227" y="679" on="1"/>
        <pt x="227" y="765" on="0"/>
        <pt x="319" y="864" on="0"/>
        <pt x="401" y="864" on="1"/>
        <pt x="480" y="864" on="0"/>
        <pt x="576" y="771" on="0"/>
        <pt x="581" y="690" on="1"/>
        <pt x="479" y="690" on="1"/>
        <pt x="473" y="767" on="0"/>
        <pt x="401" y="767" on="1"/>
        <pt x="331" y="767" on="0"/>
        <pt x="331" y="679" on="1"/>
        <pt x="331" y="599" on="1"/>
        <pt x="505" y="599" on="1"/>
        <pt x="505" y="503" on="1"/>
        <pt x="331" y="503" on="1"/>
        <pt x="331" y="0" on="1"/>
      </contour>
    </TTGlyph>
    <TTGlyph name="five" xMin="64" yMin="-16" xMax="539" yMax="800">
      <contour>
        <pt x="525" y="800" on="1"/>
        <pt x="525" y="696" on="1"/>
        <pt x="197" y="696" on="1"/>
        <pt x="197" y="463" on="1"/>
        <pt x="226" y="463" on="1"/>
        <pt x="236" y="497" on="0"/>
        <pt x="291" y="533" on="0"/>
        <pt x="335" y="533" on="1"/>
        <pt x="436" y="533" on="0"/>
        <pt x="539" y="398" on="0"/>
        <pt x="539" y="266" on="1"/>
        <pt x="539" y="128" on="0"/>
        <pt x="420" y="-16" on="0"/>
        <pt x="305" y="-16" on="1"/>
        <pt x="195" y="-16" on="0"/>
        <pt x="73" y="114" on="0"/>
        <pt x="64" y="239" on="1"/>
        <pt x="178" y="239" on="1"/>
        <pt x="184" y="165" on="0"/>
        <pt x="249" y="88" on="0"/>
        <pt x="305" y="88" on="1"/>
        <pt x="366" y="88" on="0"/>
        <pt x="429" y="178" on="0"/>
        <pt x="429" y="266" on="1"/>
        <pt x="429" y="348" on="0"/>
        <pt x="366" y="433" on="0"/>
        <pt x="305" y="433" on="1"/>
        <pt x="264" y="433" on="0"/>
        <pt x="204" y="388" on="0"/>
        <pt x="187" y="345" on="1"/>
        <pt x="89" y="345" on="1"/>
        <pt x="89" y="800" on="1"/>
      </contour>
    </TTGlyph>
    <TTGlyph name="four" xMin="45" yMin="0" xMax="558" yMax="800">
      <contour>
        <pt x="452" y="337" on="1"/>
        <pt x="558" y="337" on="1"/>
        <pt x="558" y="233" on="1"/>
        <pt x="452" y="233" on="1"/>
        <pt x="452" y="0" on="1"/>
        <pt x="344" y="0" on="1"/>
        <pt x="344" y="233" on="1"/>
        <pt x="45" y="233" on="1"/>
        <pt x="45" y="375" on="1"/>
        <pt x="267" y="800" on="1"/>
        <pt x="452" y="800" on="1"/>
      </contour>
      <contour>
        <pt x="344" y="337" on="1"/>
        <pt x="344" y="726" on="1"/>
        <pt x="138" y="337" on="1"/>
      </contour>
    </TTGlyph>
    <TTGlyph name="g" xMin="67" yMin="-216" xMax="499" yMax="615">
      <contour>
        <pt x="499" y="-100" on="0"/>
        <pt x="389" y="-216" on="0"/>
        <pt x="287" y="-216" on="1"/>
        <pt x="187" y="-216" on="0"/>
        <pt x="73" y="-120" on="0"/>
        <pt x="67" y="-31" on="1"/>
        <pt x="177" y="-31" on="1"/>
        <pt x="186" y="-119" on="0"/>
        <pt x="287" y="-119" on="1"/>
        <pt x="340" y="-119" on="0"/>
        <pt x="395" y="-55" on="0"/>
        <pt x="395" y="8" on="1"/>
        <pt x="395" y="112" on="1"/>
        <pt x="366" y="112" on="1"/>
        <pt x="343" y="32" on="0"/>
        <pt x="246" y="32" on="1"/>
        <pt x="161" y="32" on="0"/>
        <pt x="70" y="183" on="0"/>
        <pt x="70" y="323" on="1"/>
        <pt x="70" y="463" on="0"/>
        <pt x="161" y="615" on="0"/>
        <pt x="246" y="615" on="1"/>
        <pt x="343" y="615" on="0"/>
        <pt x="366" y="534" on="1"/>
        <pt x="395" y="534" on="1"/>
        <pt x="395" y="599" on="1"/>
        <pt x="499" y="599" on="1"/>
        <pt x="499" y="8" on="1"/>
      </contour>
      <contour>
        <pt x="174" y="228" on="0"/>
        <pt x="233" y="126" on="0"/>
        <pt x="288" y="126" on="1"/>
        <pt x="401" y="126" on="0"/>
        <pt x="401" y="323" on="1"/>
        <pt x="401" y="520" on="0"/>
        <pt x="288" y="520" on="1"/>
        <pt x="233" y="520" on="0"/>
        <pt x="174" y="418" on="0"/>
        <pt x="174" y="323" on="1"/>
      </contour>
    </TTGlyph>
    <TTGlyph name="grave" xMin="142" yMin="577" xMax="458" yMax="848">
      <contour>
        <pt x="279" y="848" on="1"/>
        <pt x="458" y="577" on="1"/>
        <pt x="359" y="577" on="1"/>
        <pt x="142" y="848" on="1"/>
      </contour>
    </TTGlyph>
    <TTGlyph name="greater" xMin="103" yMin="51" xMax="497" yMax="649">
      <contour>
        <pt x="103" y="51" on="1"/>
        <pt x="103" y="160" on="1"/>
        <pt x="421" y="345" on="1"/>
        <pt x="421" y="355" on="1"/>
        <pt x="103" y="540" on="1"/>
        <pt x="103" y="649" on="1"/>
        <pt x="497" y="418" on="1"/>
        <pt x="497" y="282" on="1"/>
      </contour>
    </TTGlyph>
    <TTGlyph name="greater.case" xMin="103" yMin="101" xMax="497" yMax="699">
      <component glyphName="greater" x="0" y="50" flags="0x4"/>
    </TTGlyph>
    <TTGlyph name="guillemotleft" xMin="77" yMin="45" xMax="503" yMax="655">
      <contour>
        <pt x="77" y="277" on="1"/>
        <pt x="77" y="421" on="1"/>
        <pt x="316" y="655" on="1"/>
        <pt x="316" y="522" on="1"/>
        <pt x="137" y="351" on="1"/>
        <pt x="316" y="182" on="1"/>
        <pt x="316" y="45" on="1"/>
      </contour>
      <contour>
        <pt x="304" y="417" on="1"/>
        <pt x="503" y="592" on="1"/>
        <pt x="503" y="468" on="1"/>
        <pt x="365" y="351" on="1"/>
        <pt x="503" y="236" on="1"/>
        <pt x="503" y="108" on="1"/>
        <pt x="304" y="281" on="1"/>
      </contour>
    </TTGlyph>
    <TTGlyph name="guillemotright" xMin="97" yMin="45" xMax="523" yMax="655">
      <contour>
        <pt x="284" y="182" on="1"/>
        <pt x="463" y="351" on="1"/>
        <pt x="284" y="522" on="1"/>
        <pt x="284" y="655" on="1"/>
        <pt x="523" y="421" on="1"/>
        <pt x="523" y="277" on="1"/>
        <pt x="284" y="45" on="1"/>
      </contour>
      <contour>
        <pt x="97" y="236" on="1"/>
        <pt x="235" y="351" on="1"/>
        <pt x="97" y="468" on="1"/>
        <pt x="97" y="592" on="1"/>
        <pt x="296" y="417" on="1"/>
        <pt x="296" y="281" on="1"/>
        <pt x="97" y="108" on="1"/>
      </contour>
    </TTGlyph>
    <TTGlyph name="h" xMin="103" yMin="0" xMax="506" yMax="848">
      <contour>
        <pt x="207" y="848" on="1"/>
        <pt x="207" y="531" on="1"/>
        <pt x="236" y="531" on="1"/>
        <pt x="245" y="570" on="0"/>
        <pt x="311" y="615" on="0"/>
        <pt x="358" y="615" on="1"/>
        <pt x="427" y="615" on="0"/>
        <pt x="506" y="508" on="0"/>
        <pt x="506" y="415" on="1"/>
        <pt x="506" y="0" on="1"/>
        <pt x="402" y="0" on="1"/>
        <pt x="402" y="387" on="1"/>
        <pt x="402" y="454" on="0"/>
        <pt x="354" y="518" on="0"/>
        <pt x="305" y="518" on="1"/>
        <pt x="255" y="518" on="0"/>
        <pt x="207" y="454" on="0"/>
        <pt x="207" y="387" on="1"/>
        <pt x="207" y="0" on="1"/>
        <pt x="103" y="0" on="1"/>
        <pt x="103" y="848" on="1"/>
      </contour>
    </TTGlyph>
    <TTGlyph name="hyphen" xMin="83" yMin="303" xMax="517" yMax="397">
      <component glyphName="minus" x="0" y="0" flags="0x0"/>
    </TTGlyph>
    <TTGlyph name="hyphen.case" xMin="83" yMin="353" xMax="517" yMax="447">
      <component glyphName="minus.case" x="0" y="0" flags="0x0"/>
    </TTGlyph>
    <TTGlyph name="i" xMin="128" yMin="0" xMax="521" yMax="846">
      <component glyphName="dotlessi" x="0" y="0" flags="0x0"/>
      <component glyphName="uni0307" x="241" y="-1" flags="0x4"/>
    </TTGlyph>
    <TTGlyph name="j" xMin="77" yMin="-216" xMax="461" yMax="846">
      <component glyphName="uni0237" x="0" y="0" flags="0x0"/>
      <component glyphName="uni0307" x="297" y="-1" flags="0x4"/>
    </TTGlyph>
    <TTGlyph name="k" xMin="119" yMin="0" xMax="568" yMax="848">
      <contour>
        <pt x="223" y="848" on="1"/>
        <pt x="223" y="325" on="1"/>
        <pt x="445" y="599" on="1"/>
        <pt x="568" y="599" on="1"/>
        <pt x="319" y="297" on="1"/>
        <pt x="559" y="0" on="1"/>
        <pt x="433" y="0" on="1"/>
        <pt x="223" y="259" on="1"/>
        <pt x="223" y="0" on="1"/>
        <pt x="119" y="0" on="1"/>
        <pt x="119" y="848" on="1"/>
      </contour>
    </TTGlyph>
    <TTGlyph name="l" xMin="113" yMin="0" xMax="506" yMax="848">
      <contour>
        <pt x="362" y="848" on="1"/>
        <pt x="362" y="96" on="1"/>
        <pt x="506" y="96" on="1"/>
        <pt x="506" y="0" on="1"/>
        <pt x="113" y="0" on="1"/>
        <pt x="113" y="96" on="1"/>
        <pt x="258" y="96" on="1"/>
        <pt x="258" y="752" on="1"/>
        <pt x="113" y="752" on="1"/>
        <pt x="113" y="848" on="1"/>
      </contour>
    </TTGlyph>
    <TTGlyph name="less" xMin="103" yMin="51" xMax="497" yMax="649">
      <contour>
        <pt x="497" y="649" on="1"/>
        <pt x="497" y="540" on="1"/>
        <pt x="179" y="355" on="1"/>
        <pt x="179" y="345" on="1"/>
        <pt x="497" y="160" on="1"/>
        <pt x="497" y="51" on="1"/>
        <pt x="103" y="282" on="1"/>
        <pt x="103" y="418" on="1"/>
      </contour>
    </TTGlyph>
    <TTGlyph name="less.case" xMin="103" yMin="101" xMax="497" yMax="699">
      <contour>
        <pt x="497" y="699" on="1"/>
        <pt x="497" y="590" on="1"/>
        <pt x="179" y="405" on="1"/>
        <pt x="179" y="395" on="1"/>
        <pt x="497" y="210" on="1"/>
        <pt x="497" y="101" on="1"/>
        <pt x="103" y="332" on="1"/>
        <pt x="103" y="468" on="1"/>
      </contour>
    </TTGlyph>
    <TTGlyph name="m" xMin="69" yMin="0" xMax="535" yMax="615">
      <contour>
        <pt x="173" y="599" on="1"/>
        <pt x="173" y="542" on="1"/>
        <pt x="203" y="542" on="1"/>
        <pt x="212" y="615" on="0"/>
        <pt x="273" y="615" on="1"/>
        <pt x="301" y="615" on="0"/>
        <pt x="338" y="577" on="0"/>
        <pt x="346" y="541" on="1"/>
        <pt x="371" y="541" on="1"/>
        <pt x="375" y="577" on="0"/>
        <pt x="416" y="615" on="0"/>
        <pt x="450" y="615" on="1"/>
        <pt x="492" y="615" on="0"/>
        <pt x="535" y="543" on="0"/>
        <pt x="535" y="475" on="1"/>
        <pt x="535" y="0" on="1"/>
        <pt x="431" y="0" on="1"/>
        <pt x="431" y="456" on="1"/>
        <pt x="431" y="513" on="0"/>
        <pt x="393" y="513" on="1"/>
        <pt x="354" y="513" on="0"/>
        <pt x="354" y="456" on="1"/>
        <pt x="354" y="0" on="1"/>
        <pt x="250" y="0" on="1"/>
        <pt x="250" y="456" on="1"/>
        <pt x="250" y="513" on="0"/>
        <pt x="212" y="513" on="1"/>
        <pt x="173" y="513" on="0"/>
        <pt x="173" y="456" on="1"/>
        <pt x="173" y="0" on="1"/>
        <pt x="69" y="0" on="1"/>
        <pt x="69" y="599" on="1"/>
      </contour>
    </TTGlyph>
    <TTGlyph name="minus" xMin="83" yMin="303" xMax="517" yMax="397">
      <contour>
        <pt x="83" y="397" on="1"/>
        <pt x="517" y="397" on="1"/>
        <pt x="517" y="303" on="1"/>
        <pt x="83" y="303" on="1"/>
      </contour>
    </TTGlyph>
    <TTGlyph name="minus.case" xMin="83" yMin="353" xMax="517" yMax="447">
      <component glyphName="minus" x="0" y="50" flags="0x4"/>
    </TTGlyph>
    <TTGlyph name="multiply" xMin="99" yMin="149" xMax="501" yMax="551">
      <contour>
        <pt x="300" y="288" on="1"/>
        <pt x="161" y="149" on="1"/>
        <pt x="99" y="211" on="1"/>
        <pt x="238" y="350" on="1"/>
        <pt x="99" y="489" on="1"/>
        <pt x="161" y="551" on="1"/>
        <pt x="300" y="412" on="1"/>
        <pt x="439" y="551" on="1"/>
        <pt x="501" y="489" on="1"/>
        <pt x="362" y="350" on="1"/>
        <pt x="501" y="211" on="1"/>
        <pt x="439" y="149" on="1"/>
      </contour>
    </TTGlyph>
    <TTGlyph name="multiply.case" xMin="99" yMin="199" xMax="501" yMax="601">
      <component glyphName="multiply" x="0" y="50" flags="0x4"/>
    </TTGlyph>
    <TTGlyph name="n" xMin="103" yMin="0" xMax="507" yMax="615">
      <contour>
        <pt x="207" y="599" on="1"/>
        <pt x="207" y="531" on="1"/>
        <pt x="237" y="531" on="1"/>
        <pt x="246" y="570" on="0"/>
        <pt x="311" y="615" on="0"/>
        <pt x="359" y="615" on="1"/>
        <pt x="428" y="615" on="0"/>
        <pt x="507" y="508" on="0"/>
        <pt x="507" y="415" on="1"/>
        <pt x="507" y="0" on="1"/>
        <pt x="403" y="0" on="1"/>
        <pt x="403" y="387" on="1"/>
        <pt x="403" y="454" on="0"/>
        <pt x="355" y="518" on="0"/>
        <pt x="305" y="518" on="1"/>
        <pt x="255" y="518" on="0"/>
        <pt x="207" y="454" on="0"/>
        <pt x="207" y="387" on="1"/>
        <pt x="207" y="0" on="1"/>
        <pt x="103" y="0" on="1"/>
        <pt x="103" y="599" on="1"/>
      </contour>
    </TTGlyph>
    <TTGlyph name="nine" xMin="62" yMin="0" xMax="538" yMax="816">
      <contour>
        <pt x="412" y="816" on="0"/>
        <pt x="538" y="671" on="0"/>
        <pt x="538" y="545" on="1"/>
        <pt x="538" y="445" on="0"/>
        <pt x="485" y="345" on="1"/>
        <pt x="297" y="0" on="1"/>
        <pt x="175" y="0" on="1"/>
        <pt x="341" y="298" on="1"/>
        <pt x="319" y="313" on="1"/>
        <pt x="309" y="304" on="0"/>
        <pt x="276" y="294" on="0"/>
        <pt x="257" y="294" on="1"/>
        <pt x="201" y="294" on="0"/>
        <pt x="112" y="358" on="0"/>
        <pt x="62" y="473" on="0"/>
        <pt x="62" y="545" on="1"/>
        <pt x="62" y="671" on="0"/>
        <pt x="190" y="816" on="0"/>
        <pt x="302" y="816" on="1"/>
      </contour>
      <contour>
        <pt x="172" y="468" on="0"/>
        <pt x="241" y="378" on="0"/>
        <pt x="300" y="378" on="1"/>
        <pt x="359" y="378" on="0"/>
        <pt x="428" y="468" on="0"/>
        <pt x="428" y="545" on="1"/>
        <pt x="428" y="622" on="0"/>
        <pt x="359" y="712" on="0"/>
        <pt x="300" y="712" on="1"/>
        <pt x="241" y="712" on="0"/>
        <pt x="172" y="622" on="0"/>
        <pt x="172" y="545" on="1"/>
      </contour>
    </TTGlyph>
    <TTGlyph name="notequal" xMin="90" yMin="10" xMax="510" yMax="690">
      <contour>
        <pt x="90" y="527" on="1"/>
        <pt x="335" y="527" on="1"/>
        <pt x="411" y="690" on="1"/>
        <pt x="507" y="690" on="1"/>
        <pt x="431" y="527" on="1"/>
        <pt x="510" y="527" on="1"/>
        <pt x="510" y="433" on="1"/>
        <pt x="387" y="433" on="1"/>
        <pt x="309" y="267" on="1"/>
        <pt x="510" y="267" on="1"/>
        <pt x="510" y="173" on="1"/>
        <pt x="265" y="173" on="1"/>
        <pt x="189" y="10" on="1"/>
        <pt x="93" y="10" on="1"/>
        <pt x="169" y="173" on="1"/>
        <pt x="90" y="173" on="1"/>
        <pt x="90" y="267" on="1"/>
        <pt x="213" y="267" on="1"/>
        <pt x="291" y="433" on="1"/>
        <pt x="90" y="433" on="1"/>
      </contour>
    </TTGlyph>
    <TTGlyph name="notequal.case" xMin="90" yMin="60" xMax="510" yMax="740">
      <component glyphName="notequal" x="0" y="50" flags="0x4"/>
    </TTGlyph>
    <TTGlyph name="numbersign" xMin="43" yMin="0" xMax="557" yMax="800">
      <contour>
        <pt x="284" y="597" on="1"/>
        <pt x="393" y="597" on="1"/>
        <pt x="433" y="800" on="1"/>
        <pt x="519" y="800" on="1"/>
        <pt x="479" y="597" on="1"/>
        <pt x="557" y="597" on="1"/>
        <pt x="557" y="507" on="1"/>
        <pt x="461" y="507" on="1"/>
        <pt x="420" y="293" on="1"/>
        <pt x="503" y="293" on="1"/>
        <pt x="503" y="203" on="1"/>
        <pt x="402" y="203" on="1"/>
        <pt x="362" y="0" on="1"/>
        <pt x="276" y="0" on="1"/>
        <pt x="316" y="203" on="1"/>
        <pt x="207" y="203" on="1"/>
        <pt x="167" y="0" on="1"/>
        <pt x="81" y="0" on="1"/>
        <pt x="121" y="203" on="1"/>
        <pt x="43" y="203" on="1"/>
        <pt x="43" y="293" on="1"/>
        <pt x="139" y="293" on="1"/>
        <pt x="180" y="507" on="1"/>
        <pt x="97" y="507" on="1"/>
        <pt x="97" y="597" on="1"/>
        <pt x="198" y="597" on="1"/>
        <pt x="238" y="800" on="1"/>
        <pt x="324" y="800" on="1"/>
      </contour>
      <contour>
        <pt x="334" y="293" on="1"/>
        <pt x="375" y="507" on="1"/>
        <pt x="266" y="507" on="1"/>
        <pt x="225" y="293" on="1"/>
      </contour>
    </TTGlyph>
    <TTGlyph name="o" xMin="77" yMin="-16" xMax="523" yMax="615">
      <contour>
        <pt x="192" y="-16" on="0"/>
        <pt x="77" y="148" on="0"/>
        <pt x="77" y="300" on="1"/>
        <pt x="77" y="452" on="0"/>
        <pt x="192" y="615" on="0"/>
        <pt x="300" y="615" on="1"/>
        <pt x="408" y="615" on="0"/>
        <pt x="523" y="452" on="0"/>
        <pt x="523" y="300" on="1"/>
        <pt x="523" y="148" on="0"/>
        <pt x="408" y="-16" on="0"/>
        <pt x="300" y="-16" on="1"/>
      </contour>
      <contour>
        <pt x="179" y="191" on="0"/>
        <pt x="240" y="81" on="0"/>
        <pt x="300" y="81" on="1"/>
        <pt x="360" y="81" on="0"/>
        <pt x="421" y="191" on="0"/>
        <pt x="421" y="300" on="1"/>
        <pt x="421" y="518" on="0"/>
        <pt x="300" y="518" on="1"/>
        <pt x="179" y="518" on="0"/>
        <pt x="179" y="300" on="1"/>
      </contour>
    </TTGlyph>
    <TTGlyph name="one" xMin="93" yMin="0" xMax="547" yMax="800">
      <contour>
        <pt x="381" y="98" on="1"/>
        <pt x="547" y="98" on="1"/>
        <pt x="547" y="0" on="1"/>
        <pt x="93" y="0" on="1"/>
        <pt x="93" y="98" on="1"/>
        <pt x="273" y="98" on="1"/>
        <pt x="273" y="701" on="1"/>
        <pt x="93" y="573" on="1"/>
        <pt x="93" y="701" on="1"/>
        <pt x="244" y="800" on="1"/>
        <pt x="381" y="800" on="1"/>
      </contour>
    </TTGlyph>
    <TTGlyph name="p" xMin="99" yMin="-200" xMax="536" yMax="615">
      <contour>
        <pt x="440" y="615" on="0"/>
        <pt x="536" y="451" on="0"/>
        <pt x="536" y="299" on="1"/>
        <pt x="536" y="147" on="0"/>
        <pt x="440" y="-16" on="0"/>
        <pt x="351" y="-16" on="1"/>
        <pt x="306" y="-16" on="0"/>
        <pt x="244" y="28" on="0"/>
        <pt x="232" y="69" on="1"/>
        <pt x="203" y="69" on="1"/>
        <pt x="203" y="-200" on="1"/>
        <pt x="99" y="-200" on="1"/>
        <pt x="99" y="599" on="1"/>
        <pt x="203" y="599" on="1"/>
        <pt x="203" y="530" on="1"/>
        <pt x="232" y="530" on="1"/>
        <pt x="244" y="571" on="0"/>
        <pt x="306" y="615" on="0"/>
        <pt x="351" y="615" on="1"/>
      </contour>
      <contour>
        <pt x="197" y="79" on="0"/>
        <pt x="315" y="79" on="1"/>
        <pt x="373" y="79" on="0"/>
        <pt x="432" y="190" on="0"/>
        <pt x="432" y="299" on="1"/>
        <pt x="432" y="408" on="0"/>
        <pt x="373" y="520" on="0"/>
        <pt x="315" y="520" on="1"/>
        <pt x="257" y="520" on="0"/>
        <pt x="197" y="409" on="0"/>
        <pt x="197" y="299" on="1"/>
      </contour>
    </TTGlyph>
    <TTGlyph name="parenleft" xMin="209" yMin="-154" xMax="481" yMax="914">
      <contour>
        <pt x="400" y="766" on="0"/>
        <pt x="313" y="538" on="0"/>
        <pt x="313" y="380" on="1"/>
        <pt x="313" y="223" on="0"/>
        <pt x="401" y="-6" on="0"/>
        <pt x="481" y="-60" on="1"/>
        <pt x="481" y="-154" on="1"/>
        <pt x="354" y="-88" on="0"/>
        <pt x="210" y="197" on="0"/>
        <pt x="209" y="380" on="1"/>
        <pt x="209" y="563" on="0"/>
        <pt x="354" y="848" on="0"/>
        <pt x="481" y="914" on="1"/>
        <pt x="481" y="820" on="1"/>
      </contour>
    </TTGlyph>
    <TTGlyph name="parenright" xMin="119" yMin="-154" xMax="391" yMax="914">
      <contour>
        <pt x="246" y="848" on="0"/>
        <pt x="391" y="563" on="0"/>
        <pt x="391" y="380" on="1"/>
        <pt x="390" y="197" on="0"/>
        <pt x="246" y="-88" on="0"/>
        <pt x="119" y="-154" on="1"/>
        <pt x="119" y="-60" on="1"/>
        <pt x="199" y="-6" on="0"/>
        <pt x="287" y="223" on="0"/>
        <pt x="287" y="380" on="1"/>
        <pt x="287" y="538" on="0"/>
        <pt x="200" y="766" on="0"/>
        <pt x="119" y="820" on="1"/>
        <pt x="119" y="914" on="1"/>
      </contour>
    </TTGlyph>
    <TTGlyph name="percent" xMin="36" yMin="-16" xMax="564" yMax="816">
      <contour>
        <pt x="36" y="254" on="1"/>
        <pt x="564" y="640" on="1"/>
        <pt x="564" y="546" on="1"/>
        <pt x="36" y="160" on="1"/>
      </contour>
      <contour>
        <pt x="58" y="731" on="0"/>
        <pt x="123" y="816" on="0"/>
        <pt x="187" y="816" on="1"/>
        <pt x="251" y="816" on="0"/>
        <pt x="316" y="731" on="0"/>
        <pt x="316" y="648" on="1"/>
        <pt x="316" y="565" on="0"/>
        <pt x="251" y="480" on="0"/>
        <pt x="187" y="480" on="1"/>
        <pt x="123" y="480" on="0"/>
        <pt x="58" y="565" on="0"/>
        <pt x="58" y="648" on="1"/>
      </contour>
      <contour>
        <pt x="151" y="571" on="0"/>
        <pt x="187" y="571" on="1"/>
        <pt x="223" y="571" on="0"/>
        <pt x="223" y="648" on="1"/>
        <pt x="223" y="725" on="0"/>
        <pt x="187" y="725" on="1"/>
        <pt x="151" y="725" on="0"/>
        <pt x="151" y="648" on="1"/>
      </contour>
      <contour>
        <pt x="284" y="235" on="0"/>
        <pt x="349" y="320" on="0"/>
        <pt x="413" y="320" on="1"/>
        <pt x="477" y="320" on="0"/>
        <pt x="542" y="235" on="0"/>
        <pt x="542" y="152" on="1"/>
        <pt x="542" y="69" on="0"/>
        <pt x="477" y="-16" on="0"/>
        <pt x="413" y="-16" on="1"/>
        <pt x="349" y="-16" on="0"/>
        <pt x="284" y="69" on="0"/>
        <pt x="284" y="152" on="1"/>
      </contour>
      <contour>
        <pt x="377" y="75" on="0"/>
        <pt x="413" y="75" on="1"/>
        <pt x="449" y="75" on="0"/>
        <pt x="449" y="152" on="1"/>
        <pt x="449" y="229" on="0"/>
        <pt x="413" y="229" on="1"/>
        <pt x="377" y="229" on="0"/>
        <pt x="377" y="152" on="1"/>
      </contour>
    </TTGlyph>
    <TTGlyph name="percent.cv01" xMin="58" yMin="-16" xMax="542" yMax="816">
      <contour>
        <pt x="346" y="-16" on="0"/>
        <pt x="284" y="86" on="0"/>
        <pt x="284" y="197" on="1"/>
        <pt x="284" y="303" on="0"/>
        <pt x="345" y="400" on="0"/>
        <pt x="413" y="400" on="1"/>
        <pt x="481" y="400" on="0"/>
        <pt x="542" y="303" on="0"/>
        <pt x="542" y="197" on="1"/>
        <pt x="542" y="86" on="0"/>
        <pt x="480" y="-16" on="0"/>
        <pt x="413" y="-16" on="1"/>
      </contour>
      <contour>
        <pt x="58" y="714" on="0"/>
        <pt x="120" y="816" on="0"/>
        <pt x="187" y="816" on="1"/>
        <pt x="254" y="816" on="0"/>
        <pt x="316" y="714" on="0"/>
        <pt x="316" y="603" on="1"/>
        <pt x="316" y="497" on="0"/>
        <pt x="255" y="400" on="0"/>
        <pt x="187" y="400" on="1"/>
        <pt x="119" y="400" on="0"/>
        <pt x="58" y="497" on="0"/>
        <pt x="58" y="603" on="1"/>
      </contour>
      <contour>
        <pt x="186" y="340" on="1"/>
        <pt x="262" y="340" on="1"/>
        <pt x="169" y="0" on="1"/>
        <pt x="88" y="0" on="1"/>
      </contour>
      <contour>
        <pt x="151" y="545" on="0"/>
        <pt x="168" y="491" on="0"/>
        <pt x="187" y="491" on="1"/>
        <pt x="206" y="491" on="0"/>
        <pt x="223" y="545" on="0"/>
        <pt x="223" y="603" on="1"/>
        <pt x="223" y="667" on="0"/>
        <pt x="206" y="725" on="0"/>
        <pt x="187" y="725" on="1"/>
        <pt x="168" y="725" on="0"/>
        <pt x="151" y="667" on="0"/>
        <pt x="151" y="603" on="1"/>
      </contour>
      <contour>
        <pt x="431" y="800" on="1"/>
        <pt x="512" y="800" on="1"/>
        <pt x="414" y="460" on="1"/>
        <pt x="338" y="460" on="1"/>
      </contour>
      <contour>
        <pt x="377" y="133" on="0"/>
        <pt x="394" y="75" on="0"/>
        <pt x="413" y="75" on="1"/>
        <pt x="432" y="75" on="0"/>
        <pt x="449" y="133" on="0"/>
        <pt x="449" y="197" on="1"/>
        <pt x="449" y="255" on="0"/>
        <pt x="432" y="309" on="0"/>
        <pt x="413" y="309" on="1"/>
        <pt x="394" y="309" on="0"/>
        <pt x="377" y="255" on="0"/>
        <pt x="377" y="197" on="1"/>
      </contour>
    </TTGlyph>
    <TTGlyph name="percent.cv02" xMin="58" yMin="-16" xMax="542" yMax="816">
      <contour>
        <pt x="349" y="-16" on="0"/>
        <pt x="284" y="69" on="0"/>
        <pt x="284" y="152" on="1"/>
        <pt x="284" y="235" on="0"/>
        <pt x="349" y="320" on="0"/>
        <pt x="413" y="320" on="1"/>
        <pt x="477" y="320" on="0"/>
        <pt x="542" y="235" on="0"/>
        <pt x="542" y="152" on="1"/>
        <pt x="542" y="69" on="0"/>
        <pt x="477" y="-16" on="0"/>
        <pt x="413" y="-16" on="1"/>
      </contour>
      <contour>
        <pt x="58" y="731" on="0"/>
        <pt x="123" y="816" on="0"/>
        <pt x="187" y="816" on="1"/>
        <pt x="251" y="816" on="0"/>
        <pt x="316" y="731" on="0"/>
        <pt x="316" y="648" on="1"/>
        <pt x="316" y="565" on="0"/>
        <pt x="251" y="480" on="0"/>
        <pt x="187" y="480" on="1"/>
        <pt x="123" y="480" on="0"/>
        <pt x="58" y="565" on="0"/>
        <pt x="58" y="648" on="1"/>
      </contour>
      <contour>
        <pt x="88" y="118" on="1"/>
        <pt x="512" y="815" on="1"/>
        <pt x="512" y="682" on="1"/>
        <pt x="88" y="-15" on="1"/>
      </contour>
      <contour>
        <pt x="151" y="571" on="0"/>
        <pt x="187" y="571" on="1"/>
        <pt x="223" y="571" on="0"/>
        <pt x="223" y="648" on="1"/>
        <pt x="223" y="725" on="0"/>
        <pt x="187" y="725" on="1"/>
        <pt x="151" y="725" on="0"/>
        <pt x="151" y="648" on="1"/>
      </contour>
      <contour>
        <pt x="377" y="75" on="0"/>
        <pt x="413" y="75" on="1"/>
        <pt x="449" y="75" on="0"/>
        <pt x="449" y="152" on="1"/>
        <pt x="449" y="229" on="0"/>
        <pt x="413" y="229" on="1"/>
        <pt x="377" y="229" on="0"/>
        <pt x="377" y="152" on="1"/>
      </contour>
    </TTGlyph>
    <TTGlyph name="period" xMin="224" yMin="-8" xMax="376" yMax="181">
      <contour>
        <pt x="263" y="-8" on="0"/>
        <pt x="224" y="40" on="0"/>
        <pt x="224" y="87" on="1"/>
        <pt x="224" y="181" on="0"/>
        <pt x="300" y="181" on="1"/>
        <pt x="376" y="181" on="0"/>
        <pt x="376" y="87" on="1"/>
        <pt x="376" y="40" on="0"/>
        <pt x="337" y="-8" on="0"/>
        <pt x="300" y="-8" on="1"/>
      </contour>
    </TTGlyph>
    <TTGlyph name="plus" xMin="83" yMin="133" xMax="517" yMax="567">
      <contour>
        <pt x="83" y="397" on="1"/>
        <pt x="253" y="397" on="1"/>
        <pt x="253" y="567" on="1"/>
        <pt x="347" y="567" on="1"/>
        <pt x="347" y="397" on="1"/>
        <pt x="517" y="397" on="1"/>
        <pt x="517" y="303" on="1"/>
        <pt x="347" y="303" on="1"/>
        <pt x="347" y="133" on="1"/>
        <pt x="253" y="133" on="1"/>
        <pt x="253" y="303" on="1"/>
        <pt x="83" y="303" on="1"/>
      </contour>
    </TTGlyph>
    <TTGlyph name="plus.case" xMin="83" yMin="183" xMax="517" yMax="617">
      <component glyphName="plus" x="0" y="50" flags="0x4"/>
    </TTGlyph>
    <TTGlyph name="q" xMin="64" yMin="-200" xMax="501" yMax="615">
      <contour>
        <pt x="294" y="615" on="0"/>
        <pt x="356" y="571" on="0"/>
        <pt x="368" y="530" on="1"/>
        <pt x="397" y="530" on="1"/>
        <pt x="397" y="599" on="1"/>
        <pt x="501" y="599" on="1"/>
        <pt x="501" y="-200" on="1"/>
        <pt x="397" y="-200" on="1"/>
        <pt x="397" y="69" on="1"/>
        <pt x="368" y="69" on="1"/>
        <pt x="356" y="28" on="0"/>
        <pt x="294" y="-16" on="0"/>
        <pt x="249" y="-16" on="1"/>
        <pt x="160" y="-16" on="0"/>
        <pt x="64" y="147" on="0"/>
        <pt x="64" y="299" on="1"/>
        <pt x="64" y="451" on="0"/>
        <pt x="160" y="615" on="0"/>
        <pt x="249" y="615" on="1"/>
      </contour>
      <contour>
        <pt x="168" y="190" on="0"/>
        <pt x="227" y="79" on="0"/>
        <pt x="285" y="79" on="1"/>
        <pt x="403" y="79" on="0"/>
        <pt x="403" y="299" on="1"/>
        <pt x="403" y="409" on="0"/>
        <pt x="343" y="520" on="0"/>
        <pt x="285" y="520" on="1"/>
        <pt x="227" y="520" on="0"/>
        <pt x="168" y="408" on="0"/>
        <pt x="168" y="299" on="1"/>
      </contour>
    </TTGlyph>
    <TTGlyph name="question" xMin="70" yMin="-7" xMax="526" yMax="816">
      <contour>
        <pt x="229" y="279" on="0"/>
        <pt x="256" y="358" on="0"/>
        <pt x="297" y="408" on="0"/>
        <pt x="330" y="441" on="1"/>
        <pt x="360" y="470" on="0"/>
        <pt x="393" y="510" on="0"/>
        <pt x="416" y="568" on="0"/>
        <pt x="416" y="606" on="1"/>
        <pt x="416" y="656" on="0"/>
        <pt x="359" y="712" on="0"/>
        <pt x="309" y="712" on="1"/>
        <pt x="253" y="712" on="0"/>
        <pt x="188" y="641" on="0"/>
        <pt x="184" y="576" on="1"/>
        <pt x="70" y="576" on="1"/>
        <pt x="83" y="691" on="0"/>
        <pt x="207" y="816" on="0"/>
        <pt x="309" y="816" on="1"/>
        <pt x="410" y="816" on="0"/>
        <pt x="526" y="704" on="0"/>
        <pt x="526" y="606" on="1"/>
        <pt x="526" y="554" on="0"/>
        <pt x="498" y="478" on="0"/>
        <pt x="457" y="426" on="0"/>
        <pt x="424" y="394" on="1"/>
        <pt x="394" y="364" on="0"/>
        <pt x="360" y="322" on="0"/>
        <pt x="337" y="263" on="0"/>
        <pt x="337" y="225" on="1"/>
        <pt x="229" y="225" on="1"/>
      </contour>
      <contour>
        <pt x="210" y="159" on="0"/>
        <pt x="286" y="159" on="1"/>
        <pt x="362" y="159" on="0"/>
        <pt x="362" y="77" on="1"/>
        <pt x="362" y="36" on="0"/>
        <pt x="323" y="-7" on="0"/>
        <pt x="286" y="-7" on="1"/>
        <pt x="249" y="-7" on="0"/>
        <pt x="210" y="36" on="0"/>
        <pt x="210" y="77" on="1"/>
      </contour>
    </TTGlyph>
    <TTGlyph name="quotedbl" xMin="144" yMin="461" xMax="456" yMax="848">
      <component glyphName="quotesingle" x="-99" y="0" flags="0x0"/>
      <component glyphName="quotesingle" x="99" y="0" flags="0x0"/>
    </TTGlyph>
    <TTGlyph name="quotedblbase" xMin="87" yMin="-179" xMax="482" yMax="181">
      <component glyphName="comma" x="-129" y="0" flags="0x0"/>
      <component glyphName="comma" x="97" y="0" flags="0x0"/>
    </TTGlyph>
    <TTGlyph name="quotedblleft" xMin="118" yMin="476" xMax="513" yMax="836">
      <contour>
        <pt x="466" y="665" on="0"/>
        <pt x="505" y="617" on="0"/>
        <pt x="505" y="570" on="1"/>
        <pt x="505" y="476" on="0"/>
        <pt x="429" y="476" on="1"/>
        <pt x="385" y="476" on="0"/>
        <pt x="344" y="532" on="0"/>
        <pt x="344" y="590" on="1"/>
        <pt x="344" y="667" on="0"/>
        <pt x="373" y="788" on="0"/>
        <pt x="403" y="836" on="1"/>
        <pt x="513" y="836" on="1"/>
        <pt x="424" y="758" on="0"/>
        <pt x="411" y="663" on="1"/>
        <pt x="421" y="665" on="0"/>
        <pt x="429" y="665" on="1"/>
      </contour>
      <contour>
        <pt x="118" y="667" on="0"/>
        <pt x="147" y="788" on="0"/>
        <pt x="177" y="836" on="1"/>
        <pt x="287" y="836" on="1"/>
        <pt x="198" y="758" on="0"/>
        <pt x="185" y="663" on="1"/>
        <pt x="195" y="665" on="0"/>
        <pt x="203" y="665" on="1"/>
        <pt x="240" y="665" on="0"/>
        <pt x="279" y="617" on="0"/>
        <pt x="279" y="570" on="1"/>
        <pt x="279" y="476" on="0"/>
        <pt x="203" y="476" on="1"/>
        <pt x="159" y="476" on="0"/>
        <pt x="118" y="532" on="0"/>
        <pt x="118" y="590" on="1"/>
      </contour>
    </TTGlyph>
    <TTGlyph name="quotedblright" xMin="87" yMin="538" xMax="482" yMax="898">
      <component glyphName="quotedblbase" x="0" y="717" flags="0x4"/>
    </TTGlyph>
    <TTGlyph name="quoteleft" xMin="215" yMin="476" xMax="384" yMax="836">
      <contour>
        <pt x="337" y="665" on="0"/>
        <pt x="376" y="617" on="0"/>
        <pt x="376" y="570" on="1"/>
        <pt x="376" y="476" on="0"/>
        <pt x="300" y="476" on="1"/>
        <pt x="256" y="476" on="0"/>
        <pt x="215" y="532" on="0"/>
        <pt x="215" y="590" on="1"/>
        <pt x="215" y="667" on="0"/>
        <pt x="244" y="788" on="0"/>
        <pt x="274" y="836" on="1"/>
        <pt x="384" y="836" on="1"/>
        <pt x="295" y="758" on="0"/>
        <pt x="282" y="663" on="1"/>
        <pt x="292" y="665" on="0"/>
        <pt x="300" y="665" on="1"/>
      </contour>
    </TTGlyph>
    <TTGlyph name="quoteright" xMin="216" yMin="538" xMax="385" yMax="898">
      <component glyphName="comma" x="0" y="717" flags="0x4"/>
    </TTGlyph>
    <TTGlyph name="quotesinglbase" xMin="216" yMin="-179" xMax="385" yMax="181">
      <component glyphName="comma" x="0" y="0" flags="0x0"/>
    </TTGlyph>
    <TTGlyph name="quotesingle" xMin="243" yMin="461" xMax="357" yMax="848">
      <contour>
        <pt x="357" y="848" on="1"/>
        <pt x="338" y="461" on="1"/>
        <pt x="262" y="461" on="1"/>
        <pt x="243" y="848" on="1"/>
      </contour>
    </TTGlyph>
    <TTGlyph name="r" xMin="85" yMin="0" xMax="541" yMax="615">
      <contour>
        <pt x="292" y="599" on="1"/>
        <pt x="292" y="540" on="1"/>
        <pt x="321" y="540" on="1"/>
        <pt x="329" y="578" on="0"/>
        <pt x="377" y="615" on="0"/>
        <pt x="418" y="615" on="1"/>
        <pt x="477" y="615" on="0"/>
        <pt x="541" y="525" on="0"/>
        <pt x="541" y="441" on="1"/>
        <pt x="541" y="340" on="1"/>
        <pt x="432" y="340" on="1"/>
        <pt x="432" y="425" on="1"/>
        <pt x="432" y="472" on="0"/>
        <pt x="404" y="516" on="0"/>
        <pt x="374" y="516" on="1"/>
        <pt x="332" y="516" on="0"/>
        <pt x="292" y="431" on="0"/>
        <pt x="292" y="342" on="1"/>
        <pt x="292" y="96" on="1"/>
        <pt x="436" y="96" on="1"/>
        <pt x="436" y="0" on="1"/>
        <pt x="102" y="0" on="1"/>
        <pt x="102" y="96" on="1"/>
        <pt x="188" y="96" on="1"/>
        <pt x="188" y="503" on="1"/>
        <pt x="85" y="503" on="1"/>
        <pt x="85" y="599" on="1"/>
      </contour>
    </TTGlyph>
    <TTGlyph name="s" xMin="99" yMin="-16" xMax="513" yMax="615">
      <contour>
        <pt x="208" y="81" on="0"/>
        <pt x="303" y="81" on="1"/>
        <pt x="347" y="81" on="0"/>
        <pt x="397" y="126" on="0"/>
        <pt x="397" y="166" on="1"/>
        <pt x="397" y="200" on="0"/>
        <pt x="358" y="238" on="0"/>
        <pt x="317" y="245" on="1"/>
        <pt x="267" y="254" on="1"/>
        <pt x="186" y="268" on="0"/>
        <pt x="103" y="360" on="0"/>
        <pt x="103" y="434" on="1"/>
        <pt x="103" y="516" on="0"/>
        <pt x="211" y="615" on="0"/>
        <pt x="300" y="615" on="1"/>
        <pt x="395" y="615" on="0"/>
        <pt x="507" y="503" on="0"/>
        <pt x="513" y="403" on="1"/>
        <pt x="414" y="403" on="1"/>
        <pt x="404" y="518" on="0"/>
        <pt x="300" y="518" on="1"/>
        <pt x="256" y="518" on="0"/>
        <pt x="205" y="473" on="0"/>
        <pt x="205" y="433" on="1"/>
        <pt x="205" y="400" on="0"/>
        <pt x="244" y="361" on="0"/>
        <pt x="286" y="354" on="1"/>
        <pt x="336" y="345" on="1"/>
        <pt x="417" y="331" on="0"/>
        <pt x="499" y="240" on="0"/>
        <pt x="499" y="165" on="1"/>
        <pt x="499" y="83" on="0"/>
        <pt x="392" y="-16" on="0"/>
        <pt x="303" y="-16" on="1"/>
        <pt x="214" y="-16" on="0"/>
        <pt x="107" y="88" on="0"/>
        <pt x="99" y="183" on="1"/>
        <pt x="199" y="183" on="1"/>
      </contour>
    </TTGlyph>
    <TTGlyph name="section" xMin="94" yMin="-216" xMax="506" yMax="816">
      <contour>
        <pt x="380" y="712" on="0"/>
        <pt x="310" y="712" on="1"/>
        <pt x="279" y="712" on="0"/>
        <pt x="243" y="666" on="0"/>
        <pt x="243" y="626" on="1"/>
        <pt x="243" y="533" on="0"/>
        <pt x="346" y="502" on="1"/>
        <pt x="423" y="479" on="0"/>
        <pt x="506" y="378" on="0"/>
        <pt x="506" y="308" on="1"/>
        <pt x="506" y="240" on="0"/>
        <pt x="439" y="148" on="0"/>
        <pt x="378" y="130" on="1"/>
        <pt x="378" y="100" on="1"/>
        <pt x="421" y="83" on="0"/>
        <pt x="467" y="12" on="0"/>
        <pt x="467" y="-37" on="1"/>
        <pt x="467" y="-120" on="0"/>
        <pt x="374" y="-216" on="0"/>
        <pt x="294" y="-216" on="1"/>
        <pt x="206" y="-216" on="0"/>
        <pt x="110" y="-113" on="0"/>
        <pt x="104" y="-12" on="1"/>
        <pt x="214" y="-12" on="1"/>
        <pt x="220" y="-112" on="0"/>
        <pt x="290" y="-112" on="1"/>
        <pt x="321" y="-112" on="0"/>
        <pt x="357" y="-66" on="0"/>
        <pt x="357" y="-26" on="1"/>
        <pt x="357" y="67" on="0"/>
        <pt x="254" y="98" on="1"/>
        <pt x="177" y="121" on="0"/>
        <pt x="94" y="222" on="0"/>
        <pt x="94" y="292" on="1"/>
        <pt x="94" y="360" on="0"/>
        <pt x="161" y="452" on="0"/>
        <pt x="222" y="470" on="1"/>
        <pt x="222" y="500" on="1"/>
        <pt x="179" y="517" on="0"/>
        <pt x="133" y="588" on="0"/>
        <pt x="133" y="637" on="1"/>
        <pt x="133" y="720" on="0"/>
        <pt x="226" y="816" on="0"/>
        <pt x="306" y="816" on="1"/>
        <pt x="394" y="816" on="0"/>
        <pt x="490" y="713" on="0"/>
        <pt x="496" y="612" on="1"/>
        <pt x="386" y="612" on="1"/>
      </contour>
      <contour>
        <pt x="204" y="251" on="0"/>
        <pt x="255" y="195" on="0"/>
        <pt x="300" y="195" on="1"/>
        <pt x="345" y="195" on="0"/>
        <pt x="396" y="251" on="0"/>
        <pt x="396" y="300" on="1"/>
        <pt x="396" y="349" on="0"/>
        <pt x="345" y="405" on="0"/>
        <pt x="300" y="405" on="1"/>
        <pt x="255" y="405" on="0"/>
        <pt x="204" y="349" on="0"/>
        <pt x="204" y="300" on="1"/>
      </contour>
    </TTGlyph>
    <TTGlyph name="semicolon" xMin="216" yMin="-179" xMax="385" yMax="606">
      <component glyphName="period" x="0" y="425" flags="0x4"/>
      <component glyphName="comma" x="0" y="0" flags="0x0"/>
    </TTGlyph>
    <TTGlyph name="seven" xMin="73" yMin="0" xMax="508" yMax="800">
      <contour>
        <pt x="262" y="0" on="1"/>
        <pt x="149" y="0" on="1"/>
        <pt x="414" y="696" on="1"/>
        <pt x="73" y="696" on="1"/>
        <pt x="73" y="800" on="1"/>
        <pt x="508" y="800" on="1"/>
        <pt x="508" y="657" on="1"/>
      </contour>
    </TTGlyph>
    <TTGlyph name="six" xMin="62" yMin="-16" xMax="538" yMax="800">
      <contour>
        <pt x="188" y="-16" on="0"/>
        <pt x="62" y="129" on="0"/>
        <pt x="62" y="255" on="1"/>
        <pt x="62" y="355" on="0"/>
        <pt x="115" y="455" on="1"/>
        <pt x="303" y="800" on="1"/>
        <pt x="425" y="800" on="1"/>
        <pt x="259" y="502" on="1"/>
        <pt x="281" y="487" on="1"/>
        <pt x="291" y="496" on="0"/>
        <pt x="324" y="506" on="0"/>
        <pt x="343" y="506" on="1"/>
        <pt x="399" y="506" on="0"/>
        <pt x="488" y="442" on="0"/>
        <pt x="538" y="327" on="0"/>
        <pt x="538" y="255" on="1"/>
        <pt x="538" y="129" on="0"/>
        <pt x="410" y="-16" on="0"/>
        <pt x="298" y="-16" on="1"/>
      </contour>
      <contour>
        <pt x="172" y="178" on="0"/>
        <pt x="241" y="88" on="0"/>
        <pt x="300" y="88" on="1"/>
        <pt x="359" y="88" on="0"/>
        <pt x="428" y="178" on="0"/>
        <pt x="428" y="255" on="1"/>
        <pt x="428" y="332" on="0"/>
        <pt x="359" y="422" on="0"/>
        <pt x="300" y="422" on="1"/>
        <pt x="241" y="422" on="0"/>
        <pt x="172" y="332" on="0"/>
        <pt x="172" y="255" on="1"/>
      </contour>
    </TTGlyph>
    <TTGlyph name="slash" xMin="108" yMin="-170" xMax="492" yMax="848">
      <contour>
        <pt x="208" y="-170" on="1"/>
        <pt x="108" y="-170" on="1"/>
        <pt x="392" y="848" on="1"/>
        <pt x="492" y="848" on="1"/>
      </contour>
    </TTGlyph>
    <TTGlyph name="sterling" xMin="83" yMin="0" xMax="537" yMax="816">
      <contour>
        <pt x="193" y="214" on="0"/>
        <pt x="193" y="301" on="1"/>
        <pt x="193" y="317" on="0"/>
        <pt x="189" y="343" on="1"/>
        <pt x="83" y="343" on="1"/>
        <pt x="83" y="433" on="1"/>
        <pt x="158" y="433" on="1"/>
        <pt x="141" y="472" on="0"/>
        <pt x="123" y="542" on="0"/>
        <pt x="123" y="587" on="1"/>
        <pt x="123" y="697" on="0"/>
        <pt x="226" y="816" on="0"/>
        <pt x="321" y="816" on="1"/>
        <pt x="418" y="816" on="0"/>
        <pt x="524" y="694" on="0"/>
        <pt x="537" y="567" on="1"/>
        <pt x="427" y="567" on="1"/>
        <pt x="420" y="641" on="0"/>
        <pt x="368" y="712" on="0"/>
        <pt x="321" y="712" on="1"/>
        <pt x="278" y="712" on="0"/>
        <pt x="233" y="647" on="0"/>
        <pt x="233" y="587" on="1"/>
        <pt x="233" y="547" on="0"/>
        <pt x="252" y="483" on="0"/>
        <pt x="272" y="433" on="1"/>
        <pt x="440" y="433" on="1"/>
        <pt x="440" y="343" on="1"/>
        <pt x="300" y="343" on="1"/>
        <pt x="303" y="324" on="0"/>
        <pt x="303" y="301" on="1"/>
        <pt x="303" y="227" on="0"/>
        <pt x="213" y="129" on="0"/>
        <pt x="121" y="104" on="1"/>
        <pt x="517" y="104" on="1"/>
        <pt x="517" y="0" on="1"/>
        <pt x="83" y="0" on="1"/>
        <pt x="83" y="184" on="1"/>
      </contour>
    </TTGlyph>
    <TTGlyph name="t" xMin="78" yMin="-16" xMax="522" yMax="753">
      <contour>
        <pt x="285" y="599" on="1"/>
        <pt x="508" y="599" on="1"/>
        <pt x="508" y="503" on="1"/>
        <pt x="285" y="503" on="1"/>
        <pt x="285" y="188" on="1"/>
        <pt x="285" y="83" on="0"/>
        <pt x="346" y="83" on="1"/>
        <pt x="381" y="83" on="0"/>
        <pt x="419" y="144" on="0"/>
        <pt x="424" y="208" on="1"/>
        <pt x="522" y="208" on="1"/>
        <pt x="508" y="-16" on="0"/>
        <pt x="343" y="-16" on="1"/>
        <pt x="263" y="-16" on="0"/>
        <pt x="181" y="87" on="0"/>
        <pt x="181" y="188" on="1"/>
        <pt x="181" y="503" on="1"/>
        <pt x="78" y="503" on="1"/>
        <pt x="78" y="599" on="1"/>
        <pt x="181" y="599" on="1"/>
        <pt x="181" y="753" on="1"/>
        <pt x="285" y="753" on="1"/>
      </contour>
    </TTGlyph>
    <TTGlyph name="three" xMin="48" yMin="-16" xMax="540" yMax="816">
      <contour>
        <pt x="538" y="107" on="0"/>
        <pt x="411" y="-16" on="0"/>
        <pt x="301" y="-16" on="1"/>
        <pt x="189" y="-16" on="0"/>
        <pt x="59" y="114" on="0"/>
        <pt x="52" y="234" on="1"/>
        <pt x="162" y="234" on="1"/>
        <pt x="168" y="164" on="0"/>
        <pt x="240" y="88" on="0"/>
        <pt x="301" y="88" on="1"/>
        <pt x="360" y="88" on="0"/>
        <pt x="428" y="158" on="0"/>
        <pt x="428" y="220" on="1"/>
        <pt x="428" y="281" on="0"/>
        <pt x="366" y="351" on="0"/>
        <pt x="312" y="351" on="1"/>
        <pt x="229" y="351" on="1"/>
        <pt x="229" y="451" on="1"/>
        <pt x="312" y="451" on="1"/>
        <pt x="367" y="451" on="0"/>
        <pt x="430" y="521" on="0"/>
        <pt x="430" y="581" on="1"/>
        <pt x="430" y="642" on="0"/>
        <pt x="366" y="712" on="0"/>
        <pt x="310" y="712" on="1"/>
        <pt x="247" y="712" on="0"/>
        <pt x="169" y="631" on="0"/>
        <pt x="162" y="556" on="1"/>
        <pt x="48" y="556" on="1"/>
        <pt x="58" y="681" on="0"/>
        <pt x="194" y="816" on="0"/>
        <pt x="310" y="816" on="1"/>
        <pt x="417" y="816" on="0"/>
        <pt x="540" y="689" on="0"/>
        <pt x="540" y="579" on="1"/>
        <pt x="540" y="515" on="0"/>
        <pt x="477" y="428" on="0"/>
        <pt x="422" y="415" on="1"/>
        <pt x="422" y="386" on="1"/>
        <pt x="476" y="374" on="0"/>
        <pt x="538" y="282" on="0"/>
        <pt x="538" y="214" on="1"/>
      </contour>
    </TTGlyph>
    <TTGlyph name="two" xMin="62" yMin="0" xMax="546" yMax="816">
      <contour>
        <pt x="386" y="458" on="0"/>
        <pt x="436" y="539" on="0"/>
        <pt x="436" y="585" on="1"/>
        <pt x="436" y="644" on="0"/>
        <pt x="372" y="712" on="0"/>
        <pt x="316" y="712" on="1"/>
        <pt x="257" y="712" on="0"/>
        <pt x="184" y="631" on="0"/>
        <pt x="176" y="556" on="1"/>
        <pt x="62" y="556" on="1"/>
        <pt x="72" y="680" on="0"/>
        <pt x="204" y="816" on="0"/>
        <pt x="316" y="816" on="1"/>
        <pt x="423" y="816" on="0"/>
        <pt x="546" y="692" on="0"/>
        <pt x="546" y="585" on="1"/>
        <pt x="546" y="517" on="0"/>
        <pt x="476" y="399" on="0"/>
        <pt x="396" y="321" on="1"/>
        <pt x="176" y="104" on="1"/>
        <pt x="532" y="104" on="1"/>
        <pt x="532" y="0" on="1"/>
        <pt x="76" y="0" on="1"/>
        <pt x="76" y="142" on="1"/>
        <pt x="330" y="401" on="1"/>
      </contour>
    </TTGlyph>
    <TTGlyph name="u" xMin="93" yMin="-16" xMax="497" yMax="599">
      <contour>
        <pt x="393" y="0" on="1"/>
        <pt x="393" y="68" on="1"/>
        <pt x="363" y="68" on="1"/>
        <pt x="354" y="29" on="0"/>
        <pt x="289" y="-16" on="0"/>
        <pt x="241" y="-16" on="1"/>
        <pt x="172" y="-16" on="0"/>
        <pt x="93" y="91" on="0"/>
        <pt x="93" y="184" on="1"/>
        <pt x="93" y="599" on="1"/>
        <pt x="197" y="599" on="1"/>
        <pt x="197" y="212" on="1"/>
        <pt x="197" y="145" on="0"/>
        <pt x="245" y="81" on="0"/>
        <pt x="295" y="81" on="1"/>
        <pt x="345" y="81" on="0"/>
        <pt x="393" y="145" on="0"/>
        <pt x="393" y="212" on="1"/>
        <pt x="393" y="599" on="1"/>
        <pt x="497" y="599" on="1"/>
        <pt x="497" y="0" on="1"/>
      </contour>
    </TTGlyph>
    <TTGlyph name="underscore" xMin="70" yMin="-126" xMax="530" yMax="-50">
      <contour>
        <pt x="530" y="-50" on="1"/>
        <pt x="530" y="-126" on="1"/>
        <pt x="70" y="-126" on="1"/>
        <pt x="70" y="-50" on="1"/>
      </contour>
    </TTGlyph>
    <TTGlyph name="uni0237" xMin="77" yMin="-216" xMax="433" yMax="599">
      <contour>
        <pt x="433" y="599" on="1"/>
        <pt x="433" y="-26" on="1"/>
        <pt x="433" y="-115" on="0"/>
        <pt x="338" y="-216" on="0"/>
        <pt x="255" y="-216" on="1"/>
        <pt x="176" y="-216" on="0"/>
        <pt x="82" y="-125" on="0"/>
        <pt x="77" y="-46" on="1"/>
        <pt x="179" y="-46" on="1"/>
        <pt x="181" y="-82" on="0"/>
        <pt x="220" y="-119" on="0"/>
        <pt x="255" y="-119" on="1"/>
        <pt x="290" y="-119" on="0"/>
        <pt x="329" y="-71" on="0"/>
        <pt x="329" y="-26" on="1"/>
        <pt x="329" y="503" on="1"/>
        <pt x="108" y="503" on="1"/>
        <pt x="108" y="599" on="1"/>
      </contour>
    </TTGlyph>
    <TTGlyph name="uni0306.cy" xMin="24" yMin="880" xMax="320" yMax="1024">
      <contour>
        <pt x="114" y="987" on="0"/>
        <pt x="143" y="952" on="0"/>
        <pt x="172" y="952" on="1"/>
        <pt x="201" y="952" on="0"/>
        <pt x="230" y="987" on="0"/>
        <pt x="233" y="1024" on="1"/>
        <pt x="320" y="1024" on="1"/>
        <pt x="314" y="956" on="0"/>
        <pt x="236" y="880" on="0"/>
        <pt x="172" y="880" on="1"/>
        <pt x="108" y="880" on="0"/>
        <pt x="30" y="956" on="0"/>
        <pt x="24" y="1024" on="1"/>
        <pt x="111" y="1024" on="1"/>
      </contour>
    </TTGlyph>
    <TTGlyph name="uni0307" xMin="4" yMin="692" xMax="164" yMax="847">
      <contour>
        <pt x="48" y="692" on="0"/>
        <pt x="4" y="734" on="0"/>
        <pt x="4" y="769" on="1"/>
        <pt x="4" y="804" on="0"/>
        <pt x="48" y="847" on="0"/>
        <pt x="84" y="847" on="1"/>
        <pt x="120" y="847" on="0"/>
        <pt x="164" y="804" on="0"/>
        <pt x="164" y="769" on="1"/>
        <pt x="164" y="734" on="0"/>
        <pt x="120" y="692" on="0"/>
        <pt x="84" y="692" on="1"/>
      </contour>
    </TTGlyph>
    <TTGlyph name="uni0308" xMin="-122" yMin="865" xMax="222" yMax="1006">
      <contour>
        <pt x="-89" y="865" on="0"/>
        <pt x="-122" y="903" on="0"/>
        <pt x="-122" y="936" on="1"/>
        <pt x="-122" y="969" on="0"/>
        <pt x="-90" y="1006" on="0"/>
        <pt x="-61" y="1006" on="1"/>
        <pt x="-32" y="1006" on="0"/>
        <pt x="1" y="969" on="0"/>
        <pt x="1" y="936" on="1"/>
        <pt x="1" y="903" on="0"/>
        <pt x="-32" y="865" on="0"/>
        <pt x="-61" y="865" on="1"/>
      </contour>
      <contour>
        <pt x="99" y="969" on="0"/>
        <pt x="132" y="1006" on="0"/>
        <pt x="161" y="1006" on="1"/>
        <pt x="190" y="1006" on="0"/>
        <pt x="222" y="969" on="0"/>
        <pt x="222" y="936" on="1"/>
        <pt x="222" y="903" on="0"/>
        <pt x="189" y="865" on="0"/>
        <pt x="161" y="865" on="1"/>
        <pt x="132" y="865" on="0"/>
        <pt x="99" y="903" on="0"/>
        <pt x="99" y="936" on="1"/>
      </contour>
    </TTGlyph>
    <TTGlyph name="uni043D" xMin="103" yMin="0" xMax="496" yMax="599">
      <contour>
        <pt x="207" y="599" on="1"/>
        <pt x="207" y="344" on="1"/>
        <pt x="392" y="344" on="1"/>
        <pt x="392" y="599" on="1"/>
        <pt x="496" y="599" on="1"/>
        <pt x="496" y="0" on="1"/>
        <pt x="392" y="0" on="1"/>
        <pt x="392" y="246" on="1"/>
        <pt x="207" y="246" on="1"/>
        <pt x="207" y="0" on="1"/>
        <pt x="103" y="0" on="1"/>
        <pt x="103" y="599" on="1"/>
      </contour>
    </TTGlyph>
    <TTGlyph name="uni043E" xMin="77" yMin="-16" xMax="523" yMax="615">
      <component glyphName="o" x="0" y="0" flags="0x0"/>
    </TTGlyph>
    <TTGlyph name="uni20BD" xMin="49" yMin="0" xMax="556" yMax="800">
      <contour>
        <pt x="427" y="800" on="0"/>
        <pt x="556" y="673" on="0"/>
        <pt x="556" y="562" on="1"/>
        <pt x="556" y="450" on="0"/>
        <pt x="427" y="323" on="0"/>
        <pt x="314" y="323" on="1"/>
        <pt x="238" y="323" on="1"/>
        <pt x="238" y="239" on="1"/>
        <pt x="376" y="239" on="1"/>
        <pt x="376" y="151" on="1"/>
        <pt x="238" y="151" on="1"/>
        <pt x="238" y="0" on="1"/>
        <pt x="133" y="0" on="1"/>
        <pt x="133" y="151" on="1"/>
        <pt x="49" y="151" on="1"/>
        <pt x="49" y="239" on="1"/>
        <pt x="133" y="239" on="1"/>
        <pt x="133" y="323" on="1"/>
        <pt x="49" y="323" on="1"/>
        <pt x="49" y="410" on="1"/>
        <pt x="133" y="410" on="1"/>
        <pt x="133" y="800" on="1"/>
        <pt x="314" y="800" on="1"/>
      </contour>
      <contour>
        <pt x="318" y="420" on="1"/>
        <pt x="377" y="420" on="0"/>
        <pt x="446" y="494" on="0"/>
        <pt x="446" y="558" on="1"/>
        <pt x="446" y="622" on="0"/>
        <pt x="377" y="696" on="0"/>
        <pt x="318" y="696" on="1"/>
        <pt x="238" y="696" on="1"/>
        <pt x="238" y="420" on="1"/>
      </contour>
    </TTGlyph>
    <TTGlyph name="v" xMin="53" yMin="0" xMax="547" yMax="599">
      <contour>
        <pt x="161" y="599" on="1"/>
        <pt x="302" y="69" on="1"/>
        <pt x="444" y="599" on="1"/>
        <pt x="547" y="599" on="1"/>
        <pt x="378" y="0" on="1"/>
        <pt x="222" y="0" on="1"/>
        <pt x="53" y="599" on="1"/>
      </contour>
    </TTGlyph>
    <TTGlyph name="w" xMin="26" yMin="0" xMax="574" yMax="599">
      <contour>
        <pt x="137" y="599" on="1"/>
        <pt x="192" y="72" on="1"/>
        <pt x="232" y="599" on="1"/>
        <pt x="377" y="599" on="1"/>
        <pt x="412" y="74" on="1"/>
        <pt x="468" y="599" on="1"/>
        <pt x="574" y="599" on="1"/>
        <pt x="485" y="0" on="1"/>
        <pt x="347" y="0" on="1"/>
        <pt x="302" y="558" on="1"/>
        <pt x="256" y="0" on="1"/>
        <pt x="115" y="0" on="1"/>
        <pt x="26" y="599" on="1"/>
      </contour>
    </TTGlyph>
    <TTGlyph name="x" xMin="63" yMin="0" xMax="537" yMax="599">
      <contour>
        <pt x="213" y="285" on="1"/>
        <pt x="63" y="599" on="1"/>
        <pt x="173" y="599" on="1"/>
        <pt x="297" y="335" on="1"/>
        <pt x="432" y="599" on="1"/>
        <pt x="537" y="599" on="1"/>
        <pt x="379" y="295" on="1"/>
        <pt x="527" y="0" on="1"/>
        <pt x="417" y="0" on="1"/>
        <pt x="296" y="245" on="1"/>
        <pt x="178" y="0" on="1"/>
        <pt x="73" y="0" on="1"/>
      </contour>
    </TTGlyph>
    <TTGlyph name="y" xMin="36" yMin="-216" xMax="560" yMax="599">
      <contour>
        <pt x="149" y="599" on="1"/>
        <pt x="316" y="87" on="1"/>
        <pt x="448" y="599" on="1"/>
        <pt x="560" y="599" on="1"/>
        <pt x="370" y="-91" on="1"/>
        <pt x="353" y="-153" on="0"/>
        <pt x="281" y="-216" on="0"/>
        <pt x="229" y="-216" on="1"/>
        <pt x="162" y="-216" on="0"/>
        <pt x="83" y="-132" on="0"/>
        <pt x="77" y="-55" on="1"/>
        <pt x="179" y="-55" on="1"/>
        <pt x="185" y="-88" on="0"/>
        <pt x="209" y="-119" on="0"/>
        <pt x="229" y="-119" on="1"/>
        <pt x="246" y="-119" on="0"/>
        <pt x="270" y="-92" on="0"/>
        <pt x="277" y="-64" on="1"/>
        <pt x="306" y="50" on="1"/>
        <pt x="226" y="50" on="1"/>
        <pt x="36" y="599" on="1"/>
      </contour>
    </TTGlyph>
    <TTGlyph name="yen" xMin="39" yMin="0" xMax="561" yMax="800">
      <contour>
        <pt x="301" y="455" on="1"/>
        <pt x="445" y="800" on="1"/>
        <pt x="561" y="800" on="1"/>
        <pt x="375" y="382" on="1"/>
        <pt x="499" y="382" on="1"/>
        <pt x="499" y="295" on="1"/>
        <pt x="354" y="295" on="1"/>
        <pt x="354" y="210" on="1"/>
        <pt x="499" y="210" on="1"/>
        <pt x="499" y="123" on="1"/>
        <pt x="354" y="123" on="1"/>
        <pt x="354" y="0" on="1"/>
        <pt x="246" y="0" on="1"/>
        <pt x="246" y="123" on="1"/>
        <pt x="101" y="123" on="1"/>
        <pt x="101" y="210" on="1"/>
        <pt x="246" y="210" on="1"/>
        <pt x="246" y="295" on="1"/>
        <pt x="101" y="295" on="1"/>
        <pt x="101" y="382" on="1"/>
        <pt x="225" y="382" on="1"/>
        <pt x="39" y="800" on="1"/>
        <pt x="157" y="800" on="1"/>
      </contour>
    </TTGlyph>
    <TTGlyph name="z" xMin="111" yMin="0" xMax="489" yMax="599">
      <contour>
        <pt x="489" y="599" on="1"/>
        <pt x="489" y="427" on="1"/>
        <pt x="170" y="96" on="1"/>
        <pt x="489" y="96" on="1"/>
        <pt x="489" y="0" on="1"/>
        <pt x="111" y="0" on="1"/>
        <pt x="111" y="172" on="1"/>
        <pt x="430" y="503" on="1"/>
        <pt x="111" y="503" on="1"/>
        <pt x="111" y="599" on="1"/>
      </contour>
    </TTGlyph>
    <TTGlyph name="zero" xMin="58" yMin="-15" xMax="542" yMax="816">
      <contour>
        <pt x="176" y="-15" on="0"/>
        <pt x="58" y="188" on="0"/>
        <pt x="58" y="400" on="1"/>
        <pt x="58" y="612" on="0"/>
        <pt x="176" y="816" on="0"/>
        <pt x="300" y="816" on="1"/>
        <pt x="424" y="816" on="0"/>
        <pt x="542" y="612" on="0"/>
        <pt x="542" y="400" on="1"/>
        <pt x="542" y="188" on="0"/>
        <pt x="424" y="-15" on="0"/>
        <pt x="300" y="-15" on="1"/>
      </contour>
      <contour>
        <pt x="166" y="357" on="0"/>
        <pt x="167" y="338" on="1"/>
        <pt x="419" y="586" on="1"/>
        <pt x="404" y="652" on="0"/>
        <pt x="346" y="715" on="0"/>
        <pt x="300" y="715" on="1"/>
        <pt x="230" y="715" on="0"/>
        <pt x="166" y="565" on="0"/>
        <pt x="166" y="400" on="1"/>
      </contour>
      <contour>
        <pt x="195" y="148" on="0"/>
        <pt x="254" y="85" on="0"/>
        <pt x="300" y="85" on="1"/>
        <pt x="370" y="85" on="0"/>
        <pt x="434" y="235" on="0"/>
        <pt x="434" y="400" on="1"/>
        <pt x="434" y="443" on="0"/>
        <pt x="433" y="463" on="1"/>
        <pt x="181" y="215" on="1"/>
      </contour>
    </TTGlyph>
</ttFont>
